<svg height="256" viewBox="0 0 256 256" width="256" xmlns="http://www.w3.org/2000/svg"><path d="m205.3 127.3c7.7 0 17.3 3.5 24.2 9v-61.2h-64.1c5.5-6.9 9-16.6 9-24.2a24.2 24.2 0 0 0 -48.4 0c0 7.6 3.5 17.3 9 24.2h-64.2v61.2c-6.9-5.5-16.5-9-24.2-9a24.2 24.2 0 0 0 0 48.4c7.7 0 17.3-3.5 24.2-9v61.2h64.2c-5.5-6.9-9-16.6-9-24.2a24.2 24.2 0 0 1 48.4 0c0 7.6-3.5 17.3-9 24.2h64.1v-61.2c-6.9 5.5-16.5 9-24.2 9a24.2 24.2 0 0 1 0-48.4z" fill="none" stroke="#000" stroke-linecap="round" stroke-linejoin="round" stroke-width="19"/></svg>