<svg xmlns="http://www.w3.org/2000/svg" width="256" height="256" viewBox="0 0 256 256"><path d="M117.2 176.8a9.5 9.5 0 0 1-6.8-16.2L208 63l6.1-21.4-21 6.5-97.6 97.6a9.5 9.5 0 0 1-13.4 0 9.6 9.6 0 0 1 0-13.5l99.3-99.3a8.6 8.6 0 0 1 3.9-2.3l40-12.2a9.5 9.5 0 0 1 11.9 11.7l-11.6 40.5a9.9 9.9 0 0 1-2.4 4.1L123.9 174a9.4 9.4 0 0 1-6.7 2.8z"/><path d="M119.3 213.8a9.4 9.4 0 0 1-6.8-2.8l-67.4-67.4a9.5 9.5 0 0 1 0-13.5l17.4-17.4a9.6 9.6 0 0 1 13.5 0l67.4 67.4a9.5 9.5 0 0 1 0 13.5L126 211a9.4 9.4 0 0 1-6.7 2.8zm-54.1-77l54.1 54.1 4-4-54.1-54.1z"/><path d="M56.3 237.7a9.6 9.6 0 0 1-6.7-2.8l-28.4-28.4a9.5 9.5 0 0 1 0-13.4l43.4-43.4a9.6 9.6 0 0 1 13.5 0l28.3 28.3a9.6 9.6 0 0 1 0 13.5L63 234.9a9.6 9.6 0 0 1-6.7 2.8zm-14.9-37.9l14.9 14.9 30-29.9-14.9-15z"/></svg>