<svg xmlns="http://www.w3.org/2000/svg" width="256" height="256" viewBox="0 0 256 256"><path d="M120.2 53.9h15.7c9.7 0 17.5 7.8 17.5 17.5v113.1c0 9.7-7.8 17.5-17.5 17.5h-15.7c-9.7 0-17.5-7.8-17.5-17.5V71.4c0-9.7 7.8-17.5 17.5-17.5z"/><path d="M71.5 102.7h113.1c9.7 0 17.5 7.8 17.5 17.5v15.7c0 9.7-7.8 17.5-17.5 17.5H71.5c-9.7 0-17.5-7.8-17.5-17.5v-15.7c0-9.7 7.8-17.5 17.5-17.5z"/><path d="M128 21.3c58.9 0 106.7 47.8 106.7 106.7S186.9 234.7 128 234.7 21.3 186.9 21.3 128 69.1 21.3 128 21.3zM128 0C57.3 0 0 57.3 0 128s57.3 128 128 128 128-57.3 128-128S198.7 0 128 0z"/></svg>