<svg xmlns="http://www.w3.org/2000/svg" width="256" height="256" viewBox="0 0 256 256"><path d="M128 243.2A115.2 115.2 0 1 1 243.2 128 115.4 115.4 0 0 1 128 243.2zm0-211.4a96.2 96.2 0 1 0 96.2 96.2A96.2 96.2 0 0 0 128 31.8z"/><path d="M197.1 58.9l-87 51.2 35.8 35.8z"/><path d="M145.9 155.4a9.5 9.5 0 0 1-6.7-2.8l-35.8-35.8a9.2 9.2 0 0 1-2.7-7.9 9.7 9.7 0 0 1 4.6-7l87-51.2a9.5 9.5 0 0 1 13 13l-51.2 87a9.7 9.7 0 0 1-7 4.6zm-20.4-43.3l18.4 18.4 26.4-44.8z"/><path d="M58.9 206.4a9.8 9.8 0 0 1-6.6-2.7 9.5 9.5 0 0 1-1.4-11.3l51.3-87a9 9 0 0 1 6.8-4.4 9.3 9.3 0 0 1 7.7 2.6l35.7 35.7a9.3 9.3 0 0 1 2.6 7.7 9 9 0 0 1-4.4 6.8l-87 51.3a10.1 10.1 0 0 1-4.7 1.3zm53.1-81.3L85 171l45.9-27z"/><path d="M128 205.6a77.6 77.6 0 1 1 77.6-77.6 77.7 77.7 0 0 1-77.6 77.6zm0-137.2a59.6 59.6 0 1 0 59.6 59.6A59.6 59.6 0 0 0 128 68.4z"/><path d="M118.5 22.3h19v37.09h-19zm-96.2 96.2h37.1v19H22.3zm174.3 0h37.1v19h-37.1zm-78.1 78.1h19v37.09h-19zM46.463 59.936l13.435-13.435 26.227 26.227L72.69 86.163zm123.344 123.329l13.435-13.435 26.226 26.227-13.435 13.435z"/></svg>