<svg xmlns="http://www.w3.org/2000/svg" width="256" height="256" viewBox="0 0 256 256"><path d="M245.7 209.9L203 167.2l-56.9-56.9-57-57-42.7-42.8c-6.7-6.7-17.7-6.7-24.4 0L10.5 22c-6.7 6.7-6.7 17.7 0 24.4l42.7 42.7 114 113.9 42.7 42.7c6.7 6.7 17.7 6.7 24.4 0l11.5-11.5c6.7-6.6 6.7-17.6-.1-24.3z"/><path d="M10.5 209.9l42.7-42.7 56.9-56.9L167 53.4l42.7-42.7c6.7-6.7 17.7-6.7 24.4 0L245.7 22c6.7 6.7 6.7 17.7 0 24.4L203 89.1 89.1 203l-42.7 42.7c-6.7 6.7-17.7 6.7-24.4 0l-11.5-11.5c-6.7-6.6-6.7-17.6 0-24.3z"/></svg>