<svg xmlns="http://www.w3.org/2000/svg" width="256" height="256" viewBox="0 0 256 256"><path d="M212.2 248.6h-55.3c-5.2 0-9.5-4.3-9.5-9.5v-49.2c0-2-1.7-3.7-3.7-3.7h-32.1c-2 0-3.7 1.7-3.7 3.7v49.2c0 5.2-4.3 9.5-9.5 9.5H43c-5.2 0-9.5-4.3-9.5-9.5V138.2H9.6c-3.9 0-7.5-2.4-8.9-6.1s-.4-7.8 2.5-10.5L121.7 14.9c3.6-3.3 9.1-3.3 12.7 0l118.3 106.7c2.9 2.6 3.9 6.8 2.5 10.5s-4.9 6.1-8.9 6.1h-24.7v100.9c.1 5.2-4.2 9.5-9.4 9.5zm-45.8-19h36.3V128.7c0-5.2 4.3-9.5 9.5-9.5h9.5l-93.6-84.4-93.7 84.4H43c5.2 0 9.5 4.3 9.5 9.5v100.9h36.4v-39.7c0-12.5 10.2-22.7 22.7-22.7h32.1c12.5 0 22.7 10.2 22.7 22.7z"/></svg>