<svg xmlns="http://www.w3.org/2000/svg" width="256" height="256" viewBox="0 0 256 256"><path fill="#231f20" d="M128.4 70.8l83.1 80.6v87h-40.4l-.5-41.3c0-13-10.9-23.6-24.3-23.6h-35.2a24.1 24.1 0 0 0-24.3 23.6l-.5 41.3H45.2v-87l83.2-80.6m0-18.5a8.9 8.9 0 0 0-6.2 2.4l-90.4 87.7a7.7 7.7 0 0 0-2.4 5.5v98.4c0 4.4 3.8 7.9 8.5 7.9h55.7c4.6 0 8.5-3.5 8.5-7.9l.5-49.1c0-4.4 3.8-7.9 8.5-7.9h35.2c4.7 0 8.5 3.5 8.5 7.9l.6 49.1c0 4.4 3.8 7.9 8.5 7.9h54.9c4.7 0 8.5-3.5 8.5-7.9v-98.4a7.6 7.6 0 0 0-2.3-5.5l-90.5-87.7a8.9 8.9 0 0 0-6.1-2.4z"/><path fill="none" stroke="#231f20" stroke-linecap="round" stroke-linejoin="round" stroke-width="15.8" d="M7.9 135.1L127.4 15.6m120.5 119.5L128.4 15.6"/></svg>