<svg xmlns="http://www.w3.org/2000/svg" width="256" height="256" viewBox="0 0 256 256"><g fill="#231f20"><path d="M126.1 22.2A107.5 107.5 0 1 1 50 53.7a107.3 107.3 0 0 1 76.1-31.5m0-18.5a126.2 126.2 0 1 0 126.2 126.2A126.2 126.2 0 0 0 126.1 3.7z"/><path d="M129.8 153.9s6.4 1.1 1.6 7.8-14.1 14.5-1.6 25.2 11.4 13.3 18.6 15.8.3 17.6-2.4 19.9-11.9 18.3-5.1 24.1 5.7-10.8 10.6-10.8 23-10.8 24.3-11.9 14.2-12.7 14.2-15.4 19-8.7 24.1-23.3 8.2-16.5-2.6-21.1-9.8 1.3-15.5-.6-3.1-4.6-3.1-9.7-13.3.3-17.5-3.3-15.4-7.8-21.5-7.8-17 13.2-33.7 7.3a5.8 5.8 0 0 1-2.7-5.2c0-3.8-1.6-9.5-4.6-9.5s-7.3-1.9-7.3-3.6 2.8-3.4 2.8-4.6-2.9-4.5-4.5-3.2-4.2 6-7 6-10.4-.2-10.4-1-5-12.9 0-15.2 10.8-6.1 19-6.1 10.7 3.3 12.9 6.5 5.1-.6 2.1-6.5 8.4-8.5 8.4-13.4.8-9.8 5.2-11.4 1.7-5.1 5.7-5.7 9.1-.3 6.4-5.3-6.2-2-1.3-6.3 7.4 1.6 7.4-1-10.6-7-11.6-7.9-10.2-4.2-12.2-4.2-11-1.8-11-.9 5.5 9.6 2.3 10.8-24.6-5.7-20-9.7 15.1-3.7 11-7.2-8.1.8-10.6-1.3-9.5-9.4-16-3.8 10.2 1.7.8 2.7-13.2-7.9-21.4-5.9-36 16.9-26 16.9c0 0 11-6.7 15.9-2.5s-2.9 18.8-2.9 18.8.3 2.9 1.5 3.9-4.7 5.2-7.5 11.8 6.6 15 6.6 19.3 5.7 14.8 7.5 14.8-1.1-6.1 2.8-4.1 5.7 8.2 4.8 10.9 14.8 12.5 32.1 15.4 5.7 8.6 15.9 10.7 12.3.8 15.5.8z"/></g></svg>