<?xml version="1.0" encoding="utf-8"?>
<!-- Generator: Adobe Illustrator 24.0.3, SVG Export Plug-In . SVG Version: 6.00 Build 0)  -->
<svg version="1.1" id="Layer_1" xmlns="http://www.w3.org/2000/svg" xmlns:xlink="http://www.w3.org/1999/xlink" x="0px" y="0px"
	 viewBox="0 0 256 256" style="enable-background:new 0 0 256 256;" xml:space="preserve">
<path d="M128,0C57.2,0-0.1,57.3-0.1,128s57.3,128,128,128s128-57.3,128-128S198.7,0,128,0z M206.4,203.6h-11c1-2.1,1.6-4.5,1.6-7
	c0-8.8-7.2-16.1-16.1-16.1h-58.5c-8.8,0-16.1,7.2-16.1,16.1s7.2,16.1,16.1,16.1h6.2c-2.7,3.6-4.2,8.1-4.2,12.9l0,0
	c0,4.2,1.2,8,3.2,11.4c-52.6-0.1-96.5-37.4-106.7-87H70c12.1,0,22-9.9,22-22l0,0c0-4.4-1.3-8.5-3.5-11.9h19c16.5,0,30-13.5,30-30
	l0,0c0-16.5-13.5-30-30-30H45.8c1.6-1.8,3.2-3.6,4.9-5.3c20.5-20.5,48.3-32,77.2-32c54.7,0,99.9,40.3,107.8,92.8h-30
	c-8.1,0-14.8,6.6-14.8,14.8c0,8.1,6.6,14.8,14.8,14.8h30.4C233.2,165.2,222.4,186.9,206.4,203.6z"/>
<g>
	<path d="M128.5,10.5c31.4,0,60.9,12.2,83.1,34.4S246,96.6,246,128s-12.2,60.9-34.4,83.1s-51.7,34.4-83.1,34.4s-60.9-12.2-83.1-34.4
		S11,159.4,11,128s12.2-60.9,34.4-83.1S97.1,10.5,128.5,10.5 M128.5,0.5C58.1,0.5,1,57.6,1,128s57.1,127.5,127.5,127.5
		S256,198.4,256,128S198.9,0.5,128.5,0.5L128.5,0.5z"/>
</g>
</svg>
