<svg xmlns="http://www.w3.org/2000/svg" width="256" height="256" viewBox="0 0 256 256"><path d="M226.8 242.6H28.3a9.5 9.5 0 0 1 0-19h198.5a9.5 9.5 0 0 1 0 19zm-25.2-127.5a10 10 0 0 1-3.8-.8l-105-46-8.9 20.3A9.5 9.5 0 1 1 66.5 81l12.7-29a9.8 9.8 0 0 1 5.3-5.1 9.5 9.5 0 0 1 7.2.2l105 45.9 7.6-17.3a9.5 9.5 0 1 1 17.4 7.6l-11.4 26.1a9.7 9.7 0 0 1-8.7 5.7z"/><path d="M124.3 239.3a9 9 0 0 1-3.8-.8 9.5 9.5 0 0 1-4.9-12.5l24.7-56.4-34.7-15.2-34.8 79.2a9.5 9.5 0 1 1-17.4-7.6l38.5-87.9h.1l29.5-67.5a9.7 9.7 0 0 1 12.6-4.9l28.4 12.5a9.5 9.5 0 0 1 4.9 12.5l-25.8 58.8 15.1 6.6a9.4 9.4 0 0 1 4.8 12.5l-28.5 65a9.3 9.3 0 0 1-8.7 5.7zM113.2 137l11 4.8 21.9-50.1-11-4.9z"/><circle cx="159" cy="48.1" r="27.1"/><path d="M100.668 141.939l29.624-67.484 28.404 12.468-29.624 67.484z"/></svg>