<svg xmlns="http://www.w3.org/2000/svg" width="256" height="256" viewBox="0 0 256 256"><path d="M229.5 237.4h-64.1a9.5 9.5 0 0 1-7.5-15.4c4.1-5.2 7-12.7 7-18.3a14.7 14.7 0 0 0-29.4 0c0 5.6 2.8 13.1 7 18.3a9.5 9.5 0 0 1-7.5 15.4H70.8a9.5 9.5 0 0 1-9.5-9.5v-45.4a43.2 43.2 0 0 1-14.7 2.7 33.7 33.7 0 0 1 0-67.4 45.8 45.8 0 0 1 14.7 2.7V75.1a9.6 9.6 0 0 1 9.5-9.5h48.4a46.8 46.8 0 0 1-2.7-14.7 33.7 33.7 0 0 1 67.4 0 46.8 46.8 0 0 1-2.7 14.7h48.3a9.5 9.5 0 0 1 9.5 9.5v61.2a9.4 9.4 0 0 1-5.3 8.6 9.7 9.7 0 0 1-10.1-1.1c-5.1-4.1-12.6-7-18.3-7a14.7 14.7 0 0 0 0 29.4c5.7 0 13.2-2.8 18.3-7a9.7 9.7 0 0 1 10.1-1.1 9.4 9.4 0 0 1 5.3 8.6v61.2a9.4 9.4 0 0 1-9.5 9.5zm-48.3-19H220v-35.9a43.2 43.2 0 0 1-14.7 2.7 33.7 33.7 0 0 1 0-67.4 45.8 45.8 0 0 1 14.7 2.7V84.6h-54.6a9.5 9.5 0 0 1-7.5-15.4c4.1-5.2 7-12.7 7-18.3a14.7 14.7 0 0 0-29.4 0c0 5.6 2.8 13.1 7 18.3a9.5 9.5 0 0 1-7.5 15.4H80.3v51.7a9.4 9.4 0 0 1-5.3 8.6 9.7 9.7 0 0 1-10.1-1.1c-5.1-4.1-12.6-7-18.3-7a14.7 14.7 0 0 0 0 29.4c5.7 0 13.2-2.8 18.3-7a9.7 9.7 0 0 1 10.1-1.1 9.4 9.4 0 0 1 5.3 8.6v51.7h38.9a46.8 46.8 0 0 1-2.7-14.7 33.7 33.7 0 0 1 67.4 0 46.8 46.8 0 0 1-2.7 14.7z"/></svg>