<svg xmlns="http://www.w3.org/2000/svg" width="256" height="256" viewBox="0 0 256 256"><path d="M43 179.1a9.6 9.6 0 0 1-9.5-9.5v-129c0-15.1 11.8-27.4 26.3-27.4H215c14.5 0 26.3 12.3 26.3 27.4v17.3a9.6 9.6 0 0 1-9.5 9.5h-14a9.5 9.5 0 1 1 0-19h4.5v-7.8c0-4.6-3.3-8.4-7.3-8.4H59.8c-4 0-7.3 3.8-7.3 8.4v129a9.5 9.5 0 0 1-9.5 9.5z"/><path d="M174.3 241.9H41.9c-14.5 0-26.3-12.3-26.3-27.4v-17.3a9.5 9.5 0 0 1 9.5-9.5h129.5a9.5 9.5 0 0 1 0 19h-120v7.8c0 4.6 3.2 8.4 7.3 8.4h132.4c4 0 7.3-3.8 7.3-8.4V22.7a9.5 9.5 0 1 1 19 0v191.8c0 15.1-11.8 27.4-26.3 27.4z"/><path d="M171.4 241.9c-14.5 0-26.3-12.3-26.3-27.4v-17.3a9.5 9.5 0 0 1 19 0v17.3c0 4.6 3.3 8.4 7.3 8.4a9.5 9.5 0 0 1 0 19zM154.6 97H78.3a9.5 9.5 0 0 1 0-19h76.3a9.5 9.5 0 0 1 0 19zm0 32.3H78.3a9.5 9.5 0 1 1 0-19h76.3a9.5 9.5 0 0 1 0 19z"/></svg>