<svg xmlns="http://www.w3.org/2000/svg" width="256" height="256" viewBox="0 0 256 256"><path d="M232.9 165.3H23.1a9.5 9.5 0 0 1-9.5-9.5v-30.5a9.4 9.4 0 0 1 9.5-9.5h209.8a9.4 9.4 0 0 1 9.5 9.5v30.5a9.5 9.5 0 0 1-9.5 9.5zm-200.3-19h190.8v-11.5H32.6z"/><path d="M218.5 215.3h-181a9.5 9.5 0 0 1-9.5-9.5v-50a9.5 9.5 0 0 1 9.5-9.5h181a9.5 9.5 0 0 1 9.5 9.5v50a9.5 9.5 0 0 1-9.5 9.5zM47 196.3h162v-31H47zm172.2-94.5a9.2 9.2 0 0 1-3.6-.7l-35.4-14.6a9.6 9.6 0 0 1-5.1-5.2 9.3 9.3 0 0 1 0-7.3l10.7-25.9a9.6 9.6 0 0 1 12.5-5.2l35.3 14.7a9.1 9.1 0 0 1 5.1 5.1 9.3 9.3 0 0 1 0 7.3L228 96a9.6 9.6 0 0 1-8.8 5.8zm-22.9-29.3l17.8 7.4 3.4-8.4-17.7-7.4z"/><path d="M186.1 131.8a11 11 0 0 1-3.6-.7 9.6 9.6 0 0 1-5.2-12.5l15.5-37.2a9.5 9.5 0 1 1 17.5 7.2l-15.4 37.3a9.6 9.6 0 0 1-8.8 5.9z"/><path d="M199.1 134.8c-17.5 0-29.8-8.3-42.8-17s-26.9-18-48.8-20.7c-19.6-2.3-27.7 5.6-38.1 15.7s-22.6 22-46.3 22a9.5 9.5 0 1 1 0-19c16 0 23.5-7.4 33.1-16.6 11.1-10.9 25-24.4 53.6-20.9 26.4 3.2 43.4 14.6 57.1 23.7 11.5 7.7 20.5 13.8 32.2 13.8a9.5 9.5 0 0 1 0 19z"/></svg>