<?xml version="1.0" encoding="utf-8"?>
<!-- Generator: Adobe Illustrator 24.0.3, SVG Export Plug-In . SVG Version: 6.00 Build 0)  -->
<svg version="1.1" id="Layer_1" xmlns="http://www.w3.org/2000/svg" xmlns:xlink="http://www.w3.org/1999/xlink" x="0px" y="0px"
	 viewBox="0 0 256 256" style="enable-background:new 0 0 256 256;" xml:space="preserve">
<g>
	<path d="M128,79.6c-26.7,0-48.4,21.7-48.4,48.4s21.7,48.4,48.4,48.4s48.4-21.7,48.4-48.4S154.7,79.6,128,79.6z M128,160.6
		c-18,0-32.6-14.6-32.6-32.6S110,95.4,128,95.4s32.6,14.6,32.6,32.6S146,160.6,128,160.6z"/>
	<path d="M241,101.1h-16.7c-2.2-7.7-5.3-15.2-9.2-22.2l11.8-11.8c5.4-5.4,5.4-14.1,0-19.5l-18.5-18.5c-5.2-5.4-13.8-5.5-19.2-0.3
		c-0.1,0.1-0.2,0.2-0.3,0.3l-11.8,11.8c-7-3.9-14.5-7-22.2-9.2V15c0-7.6-6.2-13.8-13.8-13.8h0h-26.2c-7.6,0-13.8,6.2-13.8,13.8v16.7
		c-7.7,2.2-15.2,5.3-22.2,9.2L67.1,29.1c-5.2-5.4-13.8-5.5-19.2-0.3c-0.1,0.1-0.2,0.2-0.3,0.3L29.1,47.6c-5.4,5.4-5.4,14.1,0,19.5
		l11.8,11.8c-3.9,7-7,14.5-9.2,22.2H15c-7.6,0-13.8,6.2-13.8,13.8v26.2c0,7.6,6.2,13.8,13.8,13.8h16.7c2.2,7.7,5.3,15.2,9.2,22.2
		l-11.8,11.8c-5.4,5.4-5.4,14.1,0,19.5l18.5,18.5c5.2,5.4,13.8,5.5,19.2,0.3c0.1-0.1,0.2-0.2,0.3-0.3l11.8-11.8
		c7,3.9,14.5,7,22.2,9.2V241c0,7.6,6.2,13.8,13.8,13.8h26.2c7.6,0,13.8-6.2,13.8-13.8v-16.7c7.7-2.2,15.2-5.3,22.2-9.2l11.8,11.8
		c5.2,5.4,13.8,5.5,19.2,0.3c0.1-0.1,0.2-0.2,0.3-0.3l18.5-18.5c5.4-5.4,5.4-14.1,0-19.5l-11.8-11.8c3.9-7,7-14.5,9.2-22.2H241
		c7.6,0,13.8-6.2,13.8-13.8v-26.2C254.8,107.3,248.6,101.1,241,101.1z M206.8,150c-1.8,6.3-4.3,12.4-7.5,18.1
		c-3,5.4-2.1,12.1,2.2,16.4l11,10.9l-16.9,16.9l-10.9-10.9c-2.6-2.5-6.1-4-9.7-4c-2.4,0-4.7,0.6-6.8,1.8c-5.7,3.2-11.8,5.7-18.1,7.4
		c-5.9,1.7-10,7.1-10,13.3v15.4h-23.9V220c0-6.2-4.1-11.6-10-13.3c-6.3-1.7-12.4-4.2-18.1-7.4c-2.1-1.2-4.4-1.8-6.8-1.8
		c-3.6,0-7.1,1.5-9.6,4l-10.9,10.9l-16.9-16.9l10.9-10.9c4.3-4.4,5.2-11.1,2.2-16.4c-3.2-5.7-5.7-11.8-7.4-18.1
		c-1.7-5.9-7.1-10-13.3-10H20.6v-23.9H36c6.2,0,11.6-4.1,13.3-10c1.7-6.3,4.2-12.4,7.4-18.1c3-5.4,2.1-12.1-2.2-16.4l-10.9-11
		l16.9-16.9l10.9,11c2.6,2.6,6,4,9.6,4c2.4,0,4.7-0.6,6.8-1.8c5.7-3.2,11.8-5.8,18.1-7.5c5.9-1.6,10-7,10-13.2V20.6h23.9V36
		c0,6.2,4.1,11.5,10,13.2c6.3,1.8,12.4,4.3,18.1,7.5c2.1,1.2,4.4,1.8,6.8,1.8c3.6,0,7.1-1.5,9.7-4l10.9-11l16.9,16.9l-11,11
		c-4.3,4.4-5.2,11.1-2.2,16.4c3.2,5.7,5.8,11.8,7.5,18.1c1.6,5.9,7,10,13.2,10h15.4v23.9H220C213.8,139.9,208.4,144,206.8,150z"/>
</g>
</svg>
