<svg xmlns="http://www.w3.org/2000/svg" width="256" height="256" viewBox="0 0 256 256"><g fill="#231f20"><path d="M126.8 95.1a34.1 34.1 0 1 1-34.1 34.1 34.1 34.1 0 0 1 34.1-34.1m0-14.3a48.4 48.4 0 1 0 48.4 48.4 48.4 48.4 0 0 0-48.4-48.4z"/><path d="M139.3 16.8v16.1a14.3 14.3 0 0 0 10.5 13.8 87.7 87.7 0 0 1 19 7.9 14 14 0 0 0 7.1 1.9 14.8 14.8 0 0 0 10.2-4.2l11.4-11.5 17.7 17.7L203.7 70a14.4 14.4 0 0 0-2.3 17.2 85.7 85.7 0 0 1 7.9 19 14.3 14.3 0 0 0 13.8 10.5h16.1v25h-16.1a14.3 14.3 0 0 0-13.8 10.5 87.7 87.7 0 0 1-7.9 19 14.4 14.4 0 0 0 2.3 17.2l11.5 11.4-17.7 17.7-11.4-11.4a14.8 14.8 0 0 0-10.2-4.2 14 14 0 0 0-7.1 1.9 82.6 82.6 0 0 1-19 7.8 14.5 14.5 0 0 0-10.5 13.9v16.1h-25v-16.1a14.5 14.5 0 0 0-10.5-13.9 82.6 82.6 0 0 1-19-7.8 13.8 13.8 0 0 0-7.1-1.9 14.4 14.4 0 0 0-10.1 4.2l-11.4 11.4-17.7-17.7 11.4-11.4a14.4 14.4 0 0 0 2.3-17.2 82.6 82.6 0 0 1-7.8-19 14.5 14.5 0 0 0-13.9-10.5H14.4v-25h16.1a14.5 14.5 0 0 0 13.9-10.5 80.9 80.9 0 0 1 7.8-19A14.4 14.4 0 0 0 49.9 70L38.5 58.5l17.7-17.7 11.4 11.5a14.4 14.4 0 0 0 10.1 4.2 13.8 13.8 0 0 0 7.1-1.9 87.7 87.7 0 0 1 19-7.9 14.3 14.3 0 0 0 10.5-13.8V16.8h25m.6-14.4h-26.2a13.8 13.8 0 0 0-13.8 13.8v16.7a102.9 102.9 0 0 0-22.2 9.2L65.9 30.3a13.6 13.6 0 0 0-19.5 0L27.9 48.8a13.8 13.8 0 0 0 0 19.5l11.8 11.8a100.9 100.9 0 0 0-9.2 22.2H13.8A13.8 13.8 0 0 0 0 116.1v26.2a13.8 13.8 0 0 0 13.8 13.8h16.7a102.9 102.9 0 0 0 9.2 22.2l-11.8 11.8a13.8 13.8 0 0 0 0 19.5l18.5 18.5a13.6 13.6 0 0 0 19.5 0l11.8-11.8a102.9 102.9 0 0 0 22.2 9.2v16.7a13.8 13.8 0 0 0 13.8 13.8h26.2a13.8 13.8 0 0 0 13.8-13.8v-16.7a100.9 100.9 0 0 0 22.2-9.2l11.8 11.8a13.6 13.6 0 0 0 19.5 0l18.5-18.5a13.8 13.8 0 0 0 0-19.5l-11.8-11.8a102.9 102.9 0 0 0 9.2-22.2h16.7a13.8 13.8 0 0 0 13.8-13.8v-26.2a13.8 13.8 0 0 0-13.8-13.8h-16.7a100.9 100.9 0 0 0-9.2-22.2l11.8-11.8a13.8 13.8 0 0 0 0-19.5l-18.5-18.5a13.6 13.6 0 0 0-19.5 0l-11.8 11.8a100.9 100.9 0 0 0-22.2-9.2V16.2a13.8 13.8 0 0 0-13.8-13.8z"/></g></svg>