<svg xmlns="http://www.w3.org/2000/svg" viewBox="0 0 256 256" width="256" height="256"><path d="M128 79.6c-26.7 0-48.4 21.7-48.4 48.4s21.7 48.4 48.4 48.4 48.4-21.7 48.4-48.4-21.7-48.4-48.4-48.4zm0 81c-18 0-32.6-14.6-32.6-32.6S110 95.4 128 95.4s32.6 14.6 32.6 32.6-14.6 32.6-32.6 32.6z"/><path d="M241 101.1h-16.7c-2.2-7.7-5.3-15.2-9.2-22.2l11.8-11.8c5.4-5.4 5.4-14.1 0-19.5l-18.5-18.5c-5.2-5.4-13.8-5.5-19.2-.3l-.3.3-11.8 11.8c-7-3.9-14.5-7-22.2-9.2V15c0-7.6-6.2-13.8-13.8-13.8h-26.2c-7.6 0-13.8 6.2-13.8 13.8v16.7c-7.7 2.2-15.2 5.3-22.2 9.2L67.1 29.1c-5.2-5.4-13.8-5.5-19.2-.3l-.3.3-18.5 18.5c-5.4 5.4-5.4 14.1 0 19.5l11.8 11.8c-3.9 7-7 14.5-9.2 22.2H15c-7.6 0-13.8 6.2-13.8 13.8v26.2c0 7.6 6.2 13.8 13.8 13.8h16.7c2.2 7.7 5.3 15.2 9.2 22.2l-11.8 11.8c-5.4 5.4-5.4 14.1 0 19.5l18.5 18.5c5.2 5.4 13.8 5.5 19.2.3l.3-.3 11.8-11.8c7 3.9 14.5 7 22.2 9.2V241c0 7.6 6.2 13.8 13.8 13.8h26.2c7.6 0 13.8-6.2 13.8-13.8v-16.7c7.7-2.2 15.2-5.3 22.2-9.2l11.8 11.8c5.2 5.4 13.8 5.5 19.2.3l.3-.3 18.5-18.5c5.4-5.4 5.4-14.1 0-19.5l-11.8-11.8c3.9-7 7-14.5 9.2-22.2H241c7.6 0 13.8-6.2 13.8-13.8v-26.2c0-7.6-6.2-13.8-13.8-13.8zM206.8 150c-1.8 6.3-4.3 12.4-7.5 18.1-3 5.4-2.1 12.1 2.2 16.4l11 10.9-16.9 16.9-10.9-10.9c-2.6-2.5-6.1-4-9.7-4-2.4 0-4.7.6-6.8 1.8-5.7 3.2-11.8 5.7-18.1 7.4-5.9 1.7-10 7.1-10 13.3v15.4h-23.9V220c0-6.2-4.1-11.6-10-13.3-6.3-1.7-12.4-4.2-18.1-7.4-2.1-1.2-4.4-1.8-6.8-1.8-3.6 0-7.1 1.5-9.6 4l-10.9 10.9-16.9-16.9 10.9-10.9c4.3-4.4 5.2-11.1 2.2-16.4-3.2-5.7-5.7-11.8-7.4-18.1-1.7-5.9-7.1-10-13.3-10H20.6v-23.9H36c6.2 0 11.6-4.1 13.3-10 1.7-6.3 4.2-12.4 7.4-18.1 3-5.4 2.1-12.1-2.2-16.4l-10.9-11 16.9-16.9 10.9 11c2.6 2.6 6 4 9.6 4 2.4 0 4.7-.6 6.8-1.8 5.7-3.2 11.8-5.8 18.1-7.5 5.9-1.6 10-7 10-13.2V20.6h23.9V36c0 6.2 4.1 11.5 10 13.2 6.3 1.8 12.4 4.3 18.1 7.5 2.1 1.2 4.4 1.8 6.8 1.8 3.6 0 7.1-1.5 9.7-4l10.9-11 16.9 16.9-11 11c-4.3 4.4-5.2 11.1-2.2 16.4 3.2 5.7 5.8 11.8 7.5 18.1 1.6 5.9 7 10 13.2 10h15.4v23.9H220c-6.2.1-11.6 4.2-13.2 10.2z"/></svg>