<svg xmlns="http://www.w3.org/2000/svg" width="256" height="256" viewBox="0 0 256 256"><path d="M128 243.2A115.2 115.2 0 1 1 243.2 128 115.4 115.4 0 0 1 128 243.2zm0-211.4a96.2 96.2 0 1 0 96.2 96.2A96.2 96.2 0 0 0 128 31.8z"/><path d="M118.5 22.3h19v211.47h-19zm77.4 187.3c-1.3-1.3-31.4-32.2-31.4-81.6s30.1-80.3 31.4-81.6l13.5 13.4-6.7-6.7 6.7 6.7c-.2.3-25.9 26.9-25.9 68.2s25.7 67.9 25.9 68.2zm-135.8 0l-13.5-13.4c.2-.3 25.9-26.9 25.9-68.2S46.8 60.1 46.6 59.8l13.5-13.4c1.3 1.3 31.4 32.2 31.4 81.6s-30.1 80.3-31.4 81.6z"/><path d="M132.1 150.7c-16.4 0-31.4-.8-44.1-2-40.2-3.8-67.2-11.2-68.3-11.5l5.1-18.4c1.3.4 106 28.8 206.3.1l5.3 18.2c-36.4 10.4-72.9 13.6-104.3 13.6z"/></svg>