<svg xmlns="http://www.w3.org/2000/svg" width="400" height="400" viewBox="0 0 400 400"><path d="M350 400H50a50 50 0 0 1-50-50V50A50 50 0 0 1 50 0h300a50 50 0 0 1 50 50v300a50 50 0 0 1-50 50zm-196.4-98.4c94.3 0 145.9-78.2 145.9-145.9 0-2.2 0-4.4-.1-6.6a104.5 104.5 0 0 0 25.6-26.6 103.9 103.9 0 0 1-29.5 8.1 51.6 51.6 0 0 0 22.6-28.4 102 102 0 0 1-32.6 12.4 51.3 51.3 0 0 0-88.7 35.1 56.7 56.7 0 0 0 1.3 11.7 145.6 145.6 0 0 1-105.7-53.6 51.5 51.5 0 0 0 15.9 68.5 51.9 51.9 0 0 1-23.2-6.4v.7a51.4 51.4 0 0 0 41.1 50.3 51.6 51.6 0 0 1-23.1.9 51.3 51.3 0 0 0 47.9 35.6 102.8 102.8 0 0 1-63.7 22 98.7 98.7 0 0 1-12.2-.7 145.9 145.9 0 0 0 78.5 22.9"/></svg>