<svg xmlns="http://www.w3.org/2000/svg"><symbol id="dashboard-icon" viewBox="0 0 256 256"><path fill="#231f20" d="M128.1 54.7c.4 0 .7.1.8.3l93.9 91v102a1 1 0 0 1-.8.3h-57a1 1 0 0 1-.8-.3l-.6-50.9c0-9-7.6-16.2-16.8-16.2h-36.6c-9.2 0-16.8 7.2-16.8 16.2l-.6 50.9a1 1 0 0 1-.8.3H34.3a1.3 1.3 0 0 1-.9-.3V146h.1l93.8-91a1.1 1.1 0 0 1 .8-.3m0-8a8.9 8.9 0 0 0-6.3 2.6l-93.9 91a7.7 7.7 0 0 0-2.5 5.6v102.2c0 4.5 4 8.2 8.9 8.2H92c4.9 0 8.8-3.7 8.8-8.2l.6-51c0-4.5 3.9-8.2 8.8-8.2h36.6c4.9 0 8.8 3.7 8.8 8.2l.6 51c0 4.5 3.9 8.2 8.8 8.2h57c4.9 0 8.8-3.7 8.8-8.2V145.9a8 8 0 0 0-2.4-5.6l-93.9-91a9.2 9.2 0 0 0-6.4-2.6z"/><path fill="none" stroke="#231f20" stroke-linecap="round" stroke-linejoin="round" stroke-width="8" d="M4.2 132.7l124-124m123.9 124l-124-124"/></symbol><symbol id="discover-icon" viewBox="0 0 256 256"><path fill="#231f20" d="M126.7 9.3a118.7 118.7 0 0 1 83.9 202.6A118.7 118.7 0 1 1 42.7 44a118.1 118.1 0 0 1 84-34.7m0-8.3a127 127 0 1 0 127 127 126.9 126.9 0 0 0-127-127z"/><path fill="none" stroke="#231f20" stroke-miterlimit="10" stroke-width="8.27" d="M77.6 141.4s5.8 1 1.5 7.3-13 13.3-1.5 23.1 10.5 12.2 17 14.6-5.9 22-8.4 24.1-2.1 22 4.2 27.4 5.2-10 9.7-10 23.3-18.5 24.4-19.5 30.2-12 34.8-25.4 3.3-27.9-6.6-32.1-29.4-9.2-33.2-12.4-14.2-7.3-19.8-7.3-15.6 12.2-31 6.7a5.1 5.1 0 0 1-2.4-4.7c0-3.5-28.6-13.9-28.6-14.6s-4.5-11.9 0-14 10-5.6 17.6-5.6 9.8 3.1 11.8 6 11.1 3.5 8.3-1.9 7.7-7.9 7.7-12.4-5.6-13.1-1.6-14.5 1.6-4.7 5.2-5.2 46.2-8.8 43.7-13.4-5.7-1.8-1.1-5.8 6.7 1.4 6.7-.9-9.7-6.5-10.6-7.3-.6-12.4-2.4-12.4-18.9 6.9-18.9 7.8 5 8.8 2.1 9.9-22.6-5.3-18.4-9 10.3-9.3 6.5-12.5-21.2-1-23.5-8.2c-.9-2.8-53.9 28.2-64.5 84-4.7 24.9 7.5 35.8 10.1 36.2 18.7 2.5 16.4-11.2 32.3-8.5s5.2 7.9 14.7 9.8 11.2.7 14.2.7zm132.5-105s-26.5-7.5-11.4 67.9c0 0-32.3 5.2-4.1 33.3s20.9-4.2 28.1-11.5 16.8 21.4 14.7 47.4 44.7-70.8-27.3-137.1z"/></symbol><symbol id="profile-icon" viewBox="0 0 256 256"><g fill="#231f20"><path d="M128 8a64.7 64.7 0 1 1-64.7 64.7A64.7 64.7 0 0 1 128 8m0-8a72.7 72.7 0 1 0 72.7 72.7A72.7 72.7 0 0 0 128 0z"/><path d="M190.9 108.9c10.2 2.7 24.1 6.9 35.6 15.1 14.5 10.4 21.5 24.9 21.5 44.1v72.8a6.1 6.1 0 0 1-6.1 6.1H14.1a6.1 6.1 0 0 1-6.1-6.1v-72.8c0-18.6 7.2-32.9 22.1-43.4 11.5-8.2 25.1-12.5 35.1-15.3a20.3 20.3 0 0 1 1.8 2.3c9 10.9 27.5 33.8 60.7 33.8 35.1 0 54.1-24.7 62.2-35.3a11.3 11.3 0 0 1 1-1.3m-2.4-8.9c-3.9 0-20 37.5-60.8 37.5s-55.9-36.9-60.5-36.9H67c-20.6 5.7-67 18-67 67.5v72.8A14.1 14.1 0 0 0 14.1 255h227.8a14.1 14.1 0 0 0 14.1-14.1v-72.8c0-51.3-45.9-62.4-67.3-68.1z"/></g></symbol><symbol id="settings-icon" viewBox="0 0 256 256"><g fill="#231f20"><path d="M128 87.1A40.9 40.9 0 1 1 87.1 128 41 41 0 0 1 128 87.1m0-8a48.9 48.9 0 1 0 48.9 48.9A48.9 48.9 0 0 0 128 79.1z"/><path d="M141.2 8a6 6 0 0 1 6 5.9v16.9a7.9 7.9 0 0 0 5.8 7.7 95.1 95.1 0 0 1 20.6 8.5 7.9 7.9 0 0 0 3.9 1.1 7.8 7.8 0 0 0 5.7-2.4l11.9-11.9a6.1 6.1 0 0 1 4.2-1.7 5.9 5.9 0 0 1 4.2 1.7l18.7 18.7a5.9 5.9 0 0 1 1.7 4.2 6.1 6.1 0 0 1-1.7 4.2l-11.9 11.9a7.9 7.9 0 0 0-1.3 9.6 95.1 95.1 0 0 1 8.5 20.6 7.9 7.9 0 0 0 7.7 5.8h16.9a6 6 0 0 1 5.9 6v26.4a6 6 0 0 1-5.9 6h-16.9a7.9 7.9 0 0 0-7.7 5.8 95.1 95.1 0 0 1-8.5 20.6 7.9 7.9 0 0 0 1.3 9.6l11.9 11.9a6.1 6.1 0 0 1 1.7 4.2 5.9 5.9 0 0 1-1.7 4.2l-18.7 18.7a5.9 5.9 0 0 1-4.2 1.7 6.1 6.1 0 0 1-4.2-1.7l-11.9-11.9a7.8 7.8 0 0 0-5.7-2.4 7.9 7.9 0 0 0-3.9 1.1 95.1 95.1 0 0 1-20.6 8.5 7.9 7.9 0 0 0-5.8 7.7v16.9a6 6 0 0 1-6 5.9h-26.4a5.9 5.9 0 0 1-5.9-5.9v-16.9a8 8 0 0 0-5.9-7.7 95.1 95.1 0 0 1-20.6-8.5 7.8 7.8 0 0 0-9.6 1.3l-11.9 11.9a6 6 0 0 1-8.4 0l-18.7-18.7a5.9 5.9 0 0 1-1.7-4.2 6.1 6.1 0 0 1 1.7-4.2l11.9-11.9a7.9 7.9 0 0 0 1.3-9.6 95.1 95.1 0 0 1-8.5-20.6 7.9 7.9 0 0 0-7.7-5.8H13.9a6 6 0 0 1-5.9-6v-26.4a6 6 0 0 1 5.9-6h16.9a7.9 7.9 0 0 0 7.7-5.8A95.1 95.1 0 0 1 47 82.4a7.9 7.9 0 0 0-1.3-9.6L33.8 60.9a6.1 6.1 0 0 1-1.7-4.2 5.9 5.9 0 0 1 1.7-4.2l18.7-18.7a6 6 0 0 1 8.4 0l11.9 11.9a7.8 7.8 0 0 0 9.6 1.3 95.1 95.1 0 0 1 20.6-8.5 8 8 0 0 0 5.9-7.7V13.9a5.9 5.9 0 0 1 5.9-5.9h26.4m0-8h-26.4a13.9 13.9 0 0 0-13.9 13.9v16.9a98 98 0 0 0-22.4 9.3l-12-12a13.8 13.8 0 0 0-9.8-4 14.1 14.1 0 0 0-9.9 4L28.1 46.8a14 14 0 0 0 0 19.7l12 12a97.3 97.3 0 0 0-9.3 22.3H13.9a14 14 0 0 0-13.9 14v26.4a14 14 0 0 0 13.9 14h16.9a97.3 97.3 0 0 0 9.3 22.3l-12 12a14 14 0 0 0 0 19.7l18.7 18.7a14.1 14.1 0 0 0 9.9 4 13.8 13.8 0 0 0 9.8-4l12-12a98 98 0 0 0 22.4 9.3v16.9a13.9 13.9 0 0 0 13.9 13.9h26.4a14 14 0 0 0 14-13.9v-16.9a97.3 97.3 0 0 0 22.3-9.3l12 12a13.8 13.8 0 0 0 9.8 4 14.1 14.1 0 0 0 9.9-4l18.7-18.7a14 14 0 0 0 0-19.7l-12-12a97.3 97.3 0 0 0 9.3-22.3h16.9a14 14 0 0 0 13.9-14v-26.4a14 14 0 0 0-13.9-14h-16.9a97.3 97.3 0 0 0-9.3-22.3l12-12a14 14 0 0 0 0-19.7l-18.7-18.7a14.1 14.1 0 0 0-9.9-4 13.8 13.8 0 0 0-9.8 4l-12 12a97.3 97.3 0 0 0-22.3-9.3V13.9a14 14 0 0 0-14-13.9z"/></g></symbol></svg>