<svg xmlns="http://www.w3.org/2000/svg"><symbol id="close" viewBox="0 0 256 256"><path d="M245.7 209.9L203 167.2l-56.9-56.9-57-57-42.7-42.8c-6.7-6.7-17.7-6.7-24.4 0L10.5 22c-6.7 6.7-6.7 17.7 0 24.4l42.7 42.7 114 113.9 42.7 42.7c6.7 6.7 17.7 6.7 24.4 0l11.5-11.5c6.7-6.6 6.7-17.6-.1-24.3z"/><path d="M10.5 209.9l42.7-42.7 56.9-56.9L167 53.4l42.7-42.7c6.7-6.7 17.7-6.7 24.4 0L245.7 22c6.7 6.7 6.7 17.7 0 24.4L203 89.1 89.1 203l-42.7 42.7c-6.7 6.7-17.7 6.7-24.4 0l-11.5-11.5c-6.7-6.6-6.7-17.6 0-24.3z"/></symbol><symbol id="add" viewBox="0 0 256 256"><rect width="50.7" height="148.12" x="102.7" y="53.9" rx="17.5"/><rect width="148.1" height="50.7" x="54" y="102.7" rx="17.5"/><path d="M128 21.3A106.7 106.7 0 1 1 21.3 128 106.7 106.7 0 0 1 128 21.3zM128 0a128 128 0 1 0 128 128A128 128 0 0 0 128 0z"/></symbol><symbol id="dashboard-icon" viewBox="0 0 256 256"><path d="M212.2 248.6h-55.3c-5.2 0-9.5-4.3-9.5-9.5v-49.2c0-2-1.7-3.7-3.7-3.7h-32.1c-2 0-3.7 1.7-3.7 3.7v49.2c0 5.2-4.3 9.5-9.5 9.5H43c-5.2 0-9.5-4.3-9.5-9.5V138.2H9.6c-3.9 0-7.5-2.4-8.9-6.1s-.4-7.8 2.5-10.5L121.7 14.9c3.6-3.3 9.1-3.3 12.7 0l118.3 106.7c2.9 2.6 3.9 6.8 2.5 10.5s-4.9 6.1-8.9 6.1h-24.7v100.9c.1 5.2-4.2 9.5-9.4 9.5zm-45.8-19h36.3V128.7c0-5.2 4.3-9.5 9.5-9.5h9.5l-93.6-84.4-93.7 84.4H43c5.2 0 9.5 4.3 9.5 9.5v100.9h36.4v-39.7c0-12.5 10.2-22.7 22.7-22.7h32.1c12.5 0 22.7 10.2 22.7 22.7z"/></symbol><symbol id="discover-icon" viewBox="0 0 256 256"><path d="M128 0C57.2 0-.1 57.3-.1 128s57.3 128 128 128 128-57.3 128-128S198.7 0 128 0zm78.4 203.6h-11c1-2.1 1.6-4.5 1.6-7 0-8.8-7.2-16.1-16.1-16.1h-58.5c-8.8 0-16.1 7.2-16.1 16.1s7.2 16.1 16.1 16.1h6.2c-2.7 3.6-4.2 8.1-4.2 12.9 0 4.2 1.2 8 3.2 11.4-52.6-.1-96.5-37.4-106.7-87H70c12.1 0 22-9.9 22-22 0-4.4-1.3-8.5-3.5-11.9h19c16.5 0 30-13.5 30-30s-13.5-30-30-30H45.8c1.6-1.8 3.2-3.6 4.9-5.3 20.5-20.5 48.3-32 77.2-32 54.7 0 99.9 40.3 107.8 92.8h-30c-8.1 0-14.8 6.6-14.8 14.8 0 8.1 6.6 14.8 14.8 14.8h30.4c-2.9 24-13.7 45.7-29.7 62.4z"/><path d="M128.5 10.5c31.4 0 60.9 12.2 83.1 34.4S246 96.6 246 128s-12.2 60.9-34.4 83.1-51.7 34.4-83.1 34.4-60.9-12.2-83.1-34.4S11 159.4 11 128s12.2-60.9 34.4-83.1 51.7-34.4 83.1-34.4m0-10C58.1.5 1 57.6 1 128s57.1 127.5 127.5 127.5S256 198.4 256 128 198.9.5 128.5.5z"/></symbol><symbol id="hamburger" viewBox="0 0 256 256"><path d="M17.3 205.3h221.5c9.5 0 17.3 7.7 17.3 17.3v16.2c0 9.5-7.7 17.3-17.3 17.3H17.3C7.7 256 0 248.3 0 238.7v-16.2c0-9.5 7.7-17.2 17.3-17.2zm0-102.6h221.5c9.5 0 17.3 7.7 17.3 17.3v16.2c0 9.5-7.7 17.3-17.3 17.3H17.3c-9.5 0-17.3-7.7-17.3-17.3V120c0-9.6 7.7-17.3 17.3-17.3zM17.3 0h221.5c9.5 0 17.3 7.7 17.3 17.3v16.2c0 9.5-7.7 17.3-17.3 17.3H17.3C7.7 50.7 0 43 0 33.4V17.3C0 7.7 7.7 0 17.3 0z"/></symbol><symbol id="profile-icon" viewBox="0 0 256 256"><path d="M128 19c30.7 0 55.8 25 55.8 55.8s-25 55.8-55.8 55.8-55.8-25-55.8-55.8S97.3 19 128 19m0-19C86.7 0 53.2 33.5 53.2 74.8s33.5 74.8 74.8 74.8 74.8-33.5 74.8-74.8S169.3 0 128 0z"/><path d="M128 150c47.1 0 86.4 37.6 94.3 87H33.7c7.9-49.4 47.2-87 94.3-87m0-19c-63.4 0-114.8 55.7-114.8 124.3v.7h229.5v-.7C242.8 186.7 191.4 131 128 131z"/></symbol><symbol id="settings-icon" viewBox="0 0 256 256"><path d="M128 79.6c-26.7 0-48.4 21.7-48.4 48.4s21.7 48.4 48.4 48.4 48.4-21.7 48.4-48.4-21.7-48.4-48.4-48.4zm0 81c-18 0-32.6-14.6-32.6-32.6S110 95.4 128 95.4s32.6 14.6 32.6 32.6-14.6 32.6-32.6 32.6z"/><path d="M241 101.1h-16.7c-2.2-7.7-5.3-15.2-9.2-22.2l11.8-11.8c5.4-5.4 5.4-14.1 0-19.5l-18.5-18.5c-5.2-5.4-13.8-5.5-19.2-.3l-.3.3-11.8 11.8c-7-3.9-14.5-7-22.2-9.2V15c0-7.6-6.2-13.8-13.8-13.8h-26.2c-7.6 0-13.8 6.2-13.8 13.8v16.7c-7.7 2.2-15.2 5.3-22.2 9.2L67.1 29.1c-5.2-5.4-13.8-5.5-19.2-.3l-.3.3-18.5 18.5c-5.4 5.4-5.4 14.1 0 19.5l11.8 11.8c-3.9 7-7 14.5-9.2 22.2H15c-7.6 0-13.8 6.2-13.8 13.8v26.2c0 7.6 6.2 13.8 13.8 13.8h16.7c2.2 7.7 5.3 15.2 9.2 22.2l-11.8 11.8c-5.4 5.4-5.4 14.1 0 19.5l18.5 18.5c5.2 5.4 13.8 5.5 19.2.3l.3-.3 11.8-11.8c7 3.9 14.5 7 22.2 9.2V241c0 7.6 6.2 13.8 13.8 13.8h26.2c7.6 0 13.8-6.2 13.8-13.8v-16.7c7.7-2.2 15.2-5.3 22.2-9.2l11.8 11.8c5.2 5.4 13.8 5.5 19.2.3l.3-.3 18.5-18.5c5.4-5.4 5.4-14.1 0-19.5l-11.8-11.8c3.9-7 7-14.5 9.2-22.2H241c7.6 0 13.8-6.2 13.8-13.8v-26.2c0-7.6-6.2-13.8-13.8-13.8zM206.8 150c-1.8 6.3-4.3 12.4-7.5 18.1-3 5.4-2.1 12.1 2.2 16.4l11 10.9-16.9 16.9-10.9-10.9c-2.6-2.5-6.1-4-9.7-4-2.4 0-4.7.6-6.8 1.8-5.7 3.2-11.8 5.7-18.1 7.4-5.9 1.7-10 7.1-10 13.3v15.4h-23.9V220c0-6.2-4.1-11.6-10-13.3-6.3-1.7-12.4-4.2-18.1-7.4-2.1-1.2-4.4-1.8-6.8-1.8-3.6 0-7.1 1.5-9.6 4l-10.9 10.9-16.9-16.9 10.9-10.9c4.3-4.4 5.2-11.1 2.2-16.4-3.2-5.7-5.7-11.8-7.4-18.1-1.7-5.9-7.1-10-13.3-10H20.6v-23.9H36c6.2 0 11.6-4.1 13.3-10 1.7-6.3 4.2-12.4 7.4-18.1 3-5.4 2.1-12.1-2.2-16.4l-10.9-11 16.9-16.9 10.9 11c2.6 2.6 6 4 9.6 4 2.4 0 4.7-.6 6.8-1.8 5.7-3.2 11.8-5.8 18.1-7.5 5.9-1.6 10-7 10-13.2V20.6h23.9V36c0 6.2 4.1 11.5 10 13.2 6.3 1.8 12.4 4.3 18.1 7.5 2.1 1.2 4.4 1.8 6.8 1.8 3.6 0 7.1-1.5 9.7-4l10.9-11 16.9 16.9-11 11c-4.3 4.4-5.2 11.1-2.2 16.4 3.2 5.7 5.8 11.8 7.5 18.1 1.6 5.9 7 10 13.2 10h15.4v23.9H220c-6.2.1-11.6 4.2-13.2 10.2z"/></symbol></svg>