<svg xmlns="http://www.w3.org/2000/svg"><symbol id="dashboard-icon" viewBox="0 0 256 256"><path fill="#231f20" d="M128.4 70.8l83.1 80.6v87h-40.4l-.5-41.3c0-13-10.9-23.6-24.3-23.6h-35.2a24.1 24.1 0 0 0-24.3 23.6l-.5 41.3H45.2v-87zm0-18.5a8.9 8.9 0 0 0-6.2 2.4l-90.4 87.7a7.7 7.7 0 0 0-2.4 5.5v98.4c0 4.4 3.8 7.9 8.5 7.9h55.7c4.6 0 8.5-3.5 8.5-7.9l.5-49.1c0-4.4 3.8-7.9 8.5-7.9h35.2c4.7 0 8.5 3.5 8.5 7.9l.6 49.1c0 4.4 3.8 7.9 8.5 7.9h54.9c4.7 0 8.5-3.5 8.5-7.9v-98.4a7.6 7.6 0 0 0-2.3-5.5l-90.5-87.7a8.9 8.9 0 0 0-6.1-2.4z"/><path fill="none" stroke="#231f20" stroke-linecap="round" stroke-linejoin="round" stroke-width="15.8" d="M7.9 135.1L127.4 15.6m120.5 119.5L128.4 15.6"/></symbol><symbol id="discover-icon" viewBox="0 0 256 256"><g fill="#231f20"><path d="M126.1 22.2A107.5 107.5 0 1 1 50 53.7a107.3 107.3 0 0 1 76.1-31.5m0-18.5a126.2 126.2 0 1 0 126.2 126.2A126.2 126.2 0 0 0 126.1 3.7z"/><path d="M129.8 153.9s6.4 1.1 1.6 7.8-14.1 14.5-1.6 25.2 11.4 13.3 18.6 15.8.3 17.6-2.4 19.9-11.9 18.3-5.1 24.1 5.7-10.8 10.6-10.8 23-10.8 24.3-11.9 14.2-12.7 14.2-15.4 19-8.7 24.1-23.3 8.2-16.5-2.6-21.1-9.8 1.3-15.5-.6-3.1-4.6-3.1-9.7-13.3.3-17.5-3.3-15.4-7.8-21.5-7.8-17 13.2-33.7 7.3a5.8 5.8 0 0 1-2.7-5.2c0-3.8-1.6-9.5-4.6-9.5s-7.3-1.9-7.3-3.6 2.8-3.4 2.8-4.6-2.9-4.5-4.5-3.2-4.2 6-7 6-10.4-.2-10.4-1-5-12.9 0-15.2 10.8-6.1 19-6.1 10.7 3.3 12.9 6.5 5.1-.6 2.1-6.5 8.4-8.5 8.4-13.4.8-9.8 5.2-11.4 1.7-5.1 5.7-5.7 9.1-.3 6.4-5.3-6.2-2-1.3-6.3 7.4 1.6 7.4-1-10.6-7-11.6-7.9-10.2-4.2-12.2-4.2-11-1.8-11-.9 5.5 9.6 2.3 10.8-24.6-5.7-20-9.7 15.1-3.7 11-7.2-8.1.8-10.6-1.3-9.5-9.4-16-3.8 10.2 1.7.8 2.7-13.2-7.9-21.4-5.9-36 16.9-26 16.9c0 0 11-6.7 15.9-2.5s-2.9 18.8-2.9 18.8.3 2.9 1.5 3.9-4.7 5.2-7.5 11.8 6.6 15 6.6 19.3 5.7 14.8 7.5 14.8-1.1-6.1 2.8-4.1 5.7 8.2 4.8 10.9 14.8 12.5 32.1 15.4 5.7 8.6 15.9 10.7 12.3.8 15.5.8z"/></g></symbol><symbol id="profile-icon" viewBox="0 0 256 256"><path fill="#231f20" d="M185.8 114.4a97.7 97.7 0 0 1 22.8 7.6c19.8 9.8 29.4 24.8 29.4 46.1V239H14v-70.9c0-20.1 9.4-34.8 28.9-44.9a102.5 102.5 0 0 1 23.8-8.6 75 75 0 0 0 15.2 16.1 67.8 67.8 0 0 0 42.1 14.5c26.5 0 43.6-11.2 53.2-20.6a74 74 0 0 0 8.6-10.2M177.3 97s-12.4 32.2-53.3 32.2c-26.8 0-42.7-18.9-49.3-32.2 0 0-76.7 7-76.7 71.1V255h256v-86.9c0-66.4-76.7-71.1-76.7-71.1z"/><path fill="#231f20" d="M126.1 16a56.7 56.7 0 1 1-56.7 56.7A56.7 56.7 0 0 1 126.1 16m0-16a72.7 72.7 0 1 0 72.6 72.7A72.6 72.6 0 0 0 126.1 0z"/></symbol><symbol id="settings-icon" viewBox="0 0 256 256"><g fill="#231f20"><path d="M126.8 95.1a34.1 34.1 0 1 1-34.1 34.1 34.1 34.1 0 0 1 34.1-34.1m0-14.3a48.4 48.4 0 1 0 48.4 48.4 48.4 48.4 0 0 0-48.4-48.4z"/><path d="M139.3 16.8v16.1a14.3 14.3 0 0 0 10.5 13.8 87.7 87.7 0 0 1 19 7.9 14 14 0 0 0 7.1 1.9 14.8 14.8 0 0 0 10.2-4.2l11.4-11.5 17.7 17.7L203.7 70a14.4 14.4 0 0 0-2.3 17.2 85.7 85.7 0 0 1 7.9 19 14.3 14.3 0 0 0 13.8 10.5h16.1v25h-16.1a14.3 14.3 0 0 0-13.8 10.5 87.7 87.7 0 0 1-7.9 19 14.4 14.4 0 0 0 2.3 17.2l11.5 11.4-17.7 17.7-11.4-11.4a14.8 14.8 0 0 0-10.2-4.2 14 14 0 0 0-7.1 1.9 82.6 82.6 0 0 1-19 7.8 14.5 14.5 0 0 0-10.5 13.9v16.1h-25v-16.1a14.5 14.5 0 0 0-10.5-13.9 82.6 82.6 0 0 1-19-7.8 13.8 13.8 0 0 0-7.1-1.9 14.4 14.4 0 0 0-10.1 4.2l-11.4 11.4-17.7-17.7 11.4-11.4a14.4 14.4 0 0 0 2.3-17.2 82.6 82.6 0 0 1-7.8-19 14.5 14.5 0 0 0-13.9-10.5H14.4v-25h16.1a14.5 14.5 0 0 0 13.9-10.5 80.9 80.9 0 0 1 7.8-19A14.4 14.4 0 0 0 49.9 70L38.5 58.5l17.7-17.7 11.4 11.5a14.4 14.4 0 0 0 10.1 4.2 13.8 13.8 0 0 0 7.1-1.9 87.7 87.7 0 0 1 19-7.9 14.3 14.3 0 0 0 10.5-13.8V16.8h25m.6-14.4h-26.2a13.8 13.8 0 0 0-13.8 13.8v16.7a102.9 102.9 0 0 0-22.2 9.2L65.9 30.3a13.6 13.6 0 0 0-19.5 0L27.9 48.8a13.8 13.8 0 0 0 0 19.5l11.8 11.8a100.9 100.9 0 0 0-9.2 22.2H13.8A13.8 13.8 0 0 0 0 116.1v26.2a13.8 13.8 0 0 0 13.8 13.8h16.7a102.9 102.9 0 0 0 9.2 22.2l-11.8 11.8a13.8 13.8 0 0 0 0 19.5l18.5 18.5a13.6 13.6 0 0 0 19.5 0l11.8-11.8a102.9 102.9 0 0 0 22.2 9.2v16.7a13.8 13.8 0 0 0 13.8 13.8h26.2a13.8 13.8 0 0 0 13.8-13.8v-16.7a100.9 100.9 0 0 0 22.2-9.2l11.8 11.8a13.6 13.6 0 0 0 19.5 0l18.5-18.5a13.8 13.8 0 0 0 0-19.5l-11.8-11.8a102.9 102.9 0 0 0 9.2-22.2h16.7a13.8 13.8 0 0 0 13.8-13.8v-26.2a13.8 13.8 0 0 0-13.8-13.8h-16.7a100.9 100.9 0 0 0-9.2-22.2l11.8-11.8a13.8 13.8 0 0 0 0-19.5l-18.5-18.5a13.6 13.6 0 0 0-19.5 0l-11.8 11.8a100.9 100.9 0 0 0-22.2-9.2V16.2a13.8 13.8 0 0 0-13.8-13.8z"/></g></symbol></svg>