<svg xmlns="http://www.w3.org/2000/svg"><symbol id="close" viewBox="0 0 256 256"><path d="M245.7 209.9L203 167.2l-56.9-56.9-57-57-42.7-42.8c-6.7-6.7-17.7-6.7-24.4 0L10.5 22c-6.7 6.7-6.7 17.7 0 24.4l42.7 42.7 114 113.9 42.7 42.7c6.7 6.7 17.7 6.7 24.4 0l11.5-11.5c6.7-6.6 6.7-17.6-.1-24.3z"/><path d="M10.5 209.9l42.7-42.7 56.9-56.9L167 53.4l42.7-42.7c6.7-6.7 17.7-6.7 24.4 0L245.7 22c6.7 6.7 6.7 17.7 0 24.4L203 89.1 89.1 203l-42.7 42.7c-6.7 6.7-17.7 6.7-24.4 0l-11.5-11.5c-6.7-6.6-6.7-17.6 0-24.3z"/></symbol><symbol id="dashboard-icon" viewBox="0 0 256 256"><path d="M212.2 248.6h-55.3c-5.2 0-9.5-4.3-9.5-9.5v-49.2c0-2-1.7-3.7-3.7-3.7h-32.1c-2 0-3.7 1.7-3.7 3.7v49.2c0 5.2-4.3 9.5-9.5 9.5H43c-5.2 0-9.5-4.3-9.5-9.5V138.2H9.6c-3.9 0-7.5-2.4-8.9-6.1s-.4-7.8 2.5-10.5L121.7 14.9c3.6-3.3 9.1-3.3 12.7 0l118.3 106.7c2.9 2.6 3.9 6.8 2.5 10.5s-4.9 6.1-8.9 6.1h-24.7v100.9c.1 5.2-4.2 9.5-9.4 9.5zm-45.8-19h36.3V128.7c0-5.2 4.3-9.5 9.5-9.5h9.5l-93.6-84.4-93.7 84.4H43c5.2 0 9.5 4.3 9.5 9.5v100.9h36.4v-39.7c0-12.5 10.2-22.7 22.7-22.7h32.1c12.5 0 22.7 10.2 22.7 22.7z"/></symbol><symbol id="discover-icon" viewBox="0 0 256 256"><path d="M128 0C57.2 0-.1 57.3-.1 128s57.3 128 128 128 128-57.3 128-128S198.7 0 128 0zm78.4 203.6h-11c1-2.1 1.6-4.5 1.6-7 0-8.8-7.2-16.1-16.1-16.1h-58.5c-8.8 0-16.1 7.2-16.1 16.1s7.2 16.1 16.1 16.1h6.2c-2.7 3.6-4.2 8.1-4.2 12.9 0 4.2 1.2 8 3.2 11.4-52.6-.1-96.5-37.4-106.7-87H70c12.1 0 22-9.9 22-22 0-4.4-1.3-8.5-3.5-11.9h19c16.5 0 30-13.5 30-30s-13.5-30-30-30H45.8c1.6-1.8 3.2-3.6 4.9-5.3 20.5-20.5 48.3-32 77.2-32 54.7 0 99.9 40.3 107.8 92.8h-30c-8.1 0-14.8 6.6-14.8 14.8 0 8.1 6.6 14.8 14.8 14.8h30.4c-2.9 24-13.7 45.7-29.7 62.4z"/><path d="M128.5 10.5c31.4 0 60.9 12.2 83.1 34.4S246 96.6 246 128s-12.2 60.9-34.4 83.1-51.7 34.4-83.1 34.4-60.9-12.2-83.1-34.4S11 159.4 11 128s12.2-60.9 34.4-83.1 51.7-34.4 83.1-34.4m0-10C58.1.5 1 57.6 1 128s57.1 127.5 127.5 127.5S256 198.4 256 128 198.9.5 128.5.5z"/></symbol><symbol id="add" viewBox="0 0 256 256"><path d="M120.2 53.9h15.7c9.7 0 17.5 7.8 17.5 17.5v113.1c0 9.7-7.8 17.5-17.5 17.5h-15.7c-9.7 0-17.5-7.8-17.5-17.5V71.4c0-9.7 7.8-17.5 17.5-17.5z"/><path d="M71.5 102.7h113.1c9.7 0 17.5 7.8 17.5 17.5v15.7c0 9.7-7.8 17.5-17.5 17.5H71.5c-9.7 0-17.5-7.8-17.5-17.5v-15.7c0-9.7 7.8-17.5 17.5-17.5z"/><path d="M128 21.3c58.9 0 106.7 47.8 106.7 106.7S186.9 234.7 128 234.7 21.3 186.9 21.3 128 69.1 21.3 128 21.3zM128 0C57.3 0 0 57.3 0 128s57.3 128 128 128 128-57.3 128-128S198.7 0 128 0z"/></symbol><symbol id="advent-icon" viewBox="0 0 256 256"><path d="M128 243.2A115.2 115.2 0 1 1 243.2 128 115.4 115.4 0 0 1 128 243.2zm0-211.4a96.2 96.2 0 1 0 96.2 96.2A96.2 96.2 0 0 0 128 31.8z"/><path d="M197.1 58.9l-87 51.2 35.8 35.8z"/><path d="M145.9 155.4a9.5 9.5 0 0 1-6.7-2.8l-35.8-35.8a9.2 9.2 0 0 1-2.7-7.9 9.7 9.7 0 0 1 4.6-7l87-51.2a9.5 9.5 0 0 1 13 13l-51.2 87a9.7 9.7 0 0 1-7 4.6zm-20.4-43.3l18.4 18.4 26.4-44.8z"/><path d="M58.9 206.4a9.8 9.8 0 0 1-6.6-2.7 9.5 9.5 0 0 1-1.4-11.3l51.3-87a9 9 0 0 1 6.8-4.4 9.3 9.3 0 0 1 7.7 2.6l35.7 35.7a9.3 9.3 0 0 1 2.6 7.7 9 9 0 0 1-4.4 6.8l-87 51.3a10.1 10.1 0 0 1-4.7 1.3zm53.1-81.3L85 171l45.9-27z"/><path d="M128 205.6a77.6 77.6 0 1 1 77.6-77.6 77.7 77.7 0 0 1-77.6 77.6zm0-137.2a59.6 59.6 0 1 0 59.6 59.6A59.6 59.6 0 0 0 128 68.4z"/><path d="M118.5 22.3h19v37.09h-19zm-96.2 96.2h37.1v19H22.3zm174.3 0h37.1v19h-37.1zm-78.1 78.1h19v37.09h-19zM46.463 59.936l13.435-13.435 26.227 26.227L72.69 86.163zm123.344 123.329l13.435-13.435 26.226 26.227-13.435 13.435z"/></symbol><symbol id="action-icon" viewBox="0 0 256 256"><path d="M117.2 176.8a9.5 9.5 0 0 1-6.8-16.2L208 63l6.1-21.4-21 6.5-97.6 97.6a9.5 9.5 0 0 1-13.4 0 9.6 9.6 0 0 1 0-13.5l99.3-99.3a8.6 8.6 0 0 1 3.9-2.3l40-12.2a9.5 9.5 0 0 1 11.9 11.7l-11.6 40.5a9.9 9.9 0 0 1-2.4 4.1L123.9 174a9.4 9.4 0 0 1-6.7 2.8z"/><path d="M119.3 213.8a9.4 9.4 0 0 1-6.8-2.8l-67.4-67.4a9.5 9.5 0 0 1 0-13.5l17.4-17.4a9.6 9.6 0 0 1 13.5 0l67.4 67.4a9.5 9.5 0 0 1 0 13.5L126 211a9.4 9.4 0 0 1-6.7 2.8zm-54.1-77l54.1 54.1 4-4-54.1-54.1z"/><path d="M56.3 237.7a9.6 9.6 0 0 1-6.7-2.8l-28.4-28.4a9.5 9.5 0 0 1 0-13.4l43.4-43.4a9.6 9.6 0 0 1 13.5 0l28.3 28.3a9.6 9.6 0 0 1 0 13.5L63 234.9a9.6 9.6 0 0 1-6.7 2.8zm-14.9-37.9l14.9 14.9 30-29.9-14.9-15z"/></symbol><symbol id="hamburger" viewBox="0 0 256 256"><path d="M17.3 205.3h221.5c9.5 0 17.3 7.7 17.3 17.3v16.2c0 9.5-7.7 17.3-17.3 17.3H17.3C7.7 256 0 248.3 0 238.7v-16.2c0-9.5 7.7-17.2 17.3-17.2zm0-102.6h221.5c9.5 0 17.3 7.7 17.3 17.3v16.2c0 9.5-7.7 17.3-17.3 17.3H17.3c-9.5 0-17.3-7.7-17.3-17.3V120c0-9.6 7.7-17.3 17.3-17.3zM17.3 0h221.5c9.5 0 17.3 7.7 17.3 17.3v16.2c0 9.5-7.7 17.3-17.3 17.3H17.3C7.7 50.7 0 43 0 33.4V17.3C0 7.7 7.7 0 17.3 0z"/></symbol><symbol id="profile-icon" viewBox="0 0 256 256"><path d="M128 19c30.7 0 55.8 25 55.8 55.8s-25 55.8-55.8 55.8-55.8-25-55.8-55.8S97.3 19 128 19m0-19C86.7 0 53.2 33.5 53.2 74.8s33.5 74.8 74.8 74.8 74.8-33.5 74.8-74.8S169.3 0 128 0z"/><path d="M128 150c47.1 0 86.4 37.6 94.3 87H33.7c7.9-49.4 47.2-87 94.3-87m0-19c-63.4 0-114.8 55.7-114.8 124.3v.7h229.5v-.7C242.8 186.7 191.4 131 128 131z"/></symbol><symbol id="puzzle-icon" viewBox="0 0 256 256"><path d="M229.5 237.4h-64.1a9.5 9.5 0 0 1-7.5-15.4c4.1-5.2 7-12.7 7-18.3a14.7 14.7 0 0 0-29.4 0c0 5.6 2.8 13.1 7 18.3a9.5 9.5 0 0 1-7.5 15.4H70.8a9.5 9.5 0 0 1-9.5-9.5v-45.4a43.2 43.2 0 0 1-14.7 2.7 33.7 33.7 0 0 1 0-67.4 45.8 45.8 0 0 1 14.7 2.7V75.1a9.6 9.6 0 0 1 9.5-9.5h48.4a46.8 46.8 0 0 1-2.7-14.7 33.7 33.7 0 0 1 67.4 0 46.8 46.8 0 0 1-2.7 14.7h48.3a9.5 9.5 0 0 1 9.5 9.5v61.2a9.4 9.4 0 0 1-5.3 8.6 9.7 9.7 0 0 1-10.1-1.1c-5.1-4.1-12.6-7-18.3-7a14.7 14.7 0 0 0 0 29.4c5.7 0 13.2-2.8 18.3-7a9.7 9.7 0 0 1 10.1-1.1 9.4 9.4 0 0 1 5.3 8.6v61.2a9.4 9.4 0 0 1-9.5 9.5zm-48.3-19H220v-35.9a43.2 43.2 0 0 1-14.7 2.7 33.7 33.7 0 0 1 0-67.4 45.8 45.8 0 0 1 14.7 2.7V84.6h-54.6a9.5 9.5 0 0 1-7.5-15.4c4.1-5.2 7-12.7 7-18.3a14.7 14.7 0 0 0-29.4 0c0 5.6 2.8 13.1 7 18.3a9.5 9.5 0 0 1-7.5 15.4H80.3v51.7a9.4 9.4 0 0 1-5.3 8.6 9.7 9.7 0 0 1-10.1-1.1c-5.1-4.1-12.6-7-18.3-7a14.7 14.7 0 0 0 0 29.4c5.7 0 13.2-2.8 18.3-7a9.7 9.7 0 0 1 10.1-1.1 9.4 9.4 0 0 1 5.3 8.6v51.7h38.9a46.8 46.8 0 0 1-2.7-14.7 33.7 33.7 0 0 1 67.4 0 46.8 46.8 0 0 1-2.7 14.7z"/></symbol><symbol id="plat-icon" viewBox="0 0 256 256"><path d="M226.8 242.6H28.3a9.5 9.5 0 0 1 0-19h198.5a9.5 9.5 0 0 1 0 19zm-25.2-127.5a10 10 0 0 1-3.8-.8l-105-46-8.9 20.3A9.5 9.5 0 1 1 66.5 81l12.7-29a9.8 9.8 0 0 1 5.3-5.1 9.5 9.5 0 0 1 7.2.2l105 45.9 7.6-17.3a9.5 9.5 0 1 1 17.4 7.6l-11.4 26.1a9.7 9.7 0 0 1-8.7 5.7z"/><path d="M124.3 239.3a9 9 0 0 1-3.8-.8 9.5 9.5 0 0 1-4.9-12.5l24.7-56.4-34.7-15.2-34.8 79.2a9.5 9.5 0 1 1-17.4-7.6l38.5-87.9h.1l29.5-67.5a9.7 9.7 0 0 1 12.6-4.9l28.4 12.5a9.5 9.5 0 0 1 4.9 12.5l-25.8 58.8 15.1 6.6a9.4 9.4 0 0 1 4.8 12.5l-28.5 65a9.3 9.3 0 0 1-8.7 5.7zM113.2 137l11 4.8 21.9-50.1-11-4.9z"/><circle cx="159" cy="48.1" r="27.1"/><path d="M100.668 141.939l29.624-67.484 28.404 12.468-29.624 67.484z"/></symbol><symbol id="settings-icon" viewBox="0 0 256 256"><path d="M128 79.6c-26.7 0-48.4 21.7-48.4 48.4s21.7 48.4 48.4 48.4 48.4-21.7 48.4-48.4-21.7-48.4-48.4-48.4zm0 81c-18 0-32.6-14.6-32.6-32.6S110 95.4 128 95.4s32.6 14.6 32.6 32.6-14.6 32.6-32.6 32.6z"/><path d="M241 101.1h-16.7c-2.2-7.7-5.3-15.2-9.2-22.2l11.8-11.8c5.4-5.4 5.4-14.1 0-19.5l-18.5-18.5c-5.2-5.4-13.8-5.5-19.2-.3l-.3.3-11.8 11.8c-7-3.9-14.5-7-22.2-9.2V15c0-7.6-6.2-13.8-13.8-13.8h-26.2c-7.6 0-13.8 6.2-13.8 13.8v16.7c-7.7 2.2-15.2 5.3-22.2 9.2L67.1 29.1c-5.2-5.4-13.8-5.5-19.2-.3l-.3.3-18.5 18.5c-5.4 5.4-5.4 14.1 0 19.5l11.8 11.8c-3.9 7-7 14.5-9.2 22.2H15c-7.6 0-13.8 6.2-13.8 13.8v26.2c0 7.6 6.2 13.8 13.8 13.8h16.7c2.2 7.7 5.3 15.2 9.2 22.2l-11.8 11.8c-5.4 5.4-5.4 14.1 0 19.5l18.5 18.5c5.2 5.4 13.8 5.5 19.2.3l.3-.3 11.8-11.8c7 3.9 14.5 7 22.2 9.2V241c0 7.6 6.2 13.8 13.8 13.8h26.2c7.6 0 13.8-6.2 13.8-13.8v-16.7c7.7-2.2 15.2-5.3 22.2-9.2l11.8 11.8c5.2 5.4 13.8 5.5 19.2.3l.3-.3 18.5-18.5c5.4-5.4 5.4-14.1 0-19.5l-11.8-11.8c3.9-7 7-14.5 9.2-22.2H241c7.6 0 13.8-6.2 13.8-13.8v-26.2c0-7.6-6.2-13.8-13.8-13.8zM206.8 150c-1.8 6.3-4.3 12.4-7.5 18.1-3 5.4-2.1 12.1 2.2 16.4l11 10.9-16.9 16.9-10.9-10.9c-2.6-2.5-6.1-4-9.7-4-2.4 0-4.7.6-6.8 1.8-5.7 3.2-11.8 5.7-18.1 7.4-5.9 1.7-10 7.1-10 13.3v15.4h-23.9V220c0-6.2-4.1-11.6-10-13.3-6.3-1.7-12.4-4.2-18.1-7.4-2.1-1.2-4.4-1.8-6.8-1.8-3.6 0-7.1 1.5-9.6 4l-10.9 10.9-16.9-16.9 10.9-10.9c4.3-4.4 5.2-11.1 2.2-16.4-3.2-5.7-5.7-11.8-7.4-18.1-1.7-5.9-7.1-10-13.3-10H20.6v-23.9H36c6.2 0 11.6-4.1 13.3-10 1.7-6.3 4.2-12.4 7.4-18.1 3-5.4 2.1-12.1-2.2-16.4l-10.9-11 16.9-16.9 10.9 11c2.6 2.6 6 4 9.6 4 2.4 0 4.7-.6 6.8-1.8 5.7-3.2 11.8-5.8 18.1-7.5 5.9-1.6 10-7 10-13.2V20.6h23.9V36c0 6.2 4.1 11.5 10 13.2 6.3 1.8 12.4 4.3 18.1 7.5 2.1 1.2 4.4 1.8 6.8 1.8 3.6 0 7.1-1.5 9.7-4l10.9-11 16.9 16.9-11 11c-4.3 4.4-5.2 11.1-2.2 16.4 3.2 5.7 5.8 11.8 7.5 18.1 1.6 5.9 7 10 13.2 10h15.4v23.9H220c-6.2.1-11.6 4.2-13.2 10.2z"/></symbol><symbol id="rpg-icon" viewBox="0 0 256 256"><path d="M43 179.1a9.6 9.6 0 0 1-9.5-9.5v-129c0-15.1 11.8-27.4 26.3-27.4H215c14.5 0 26.3 12.3 26.3 27.4v17.3a9.6 9.6 0 0 1-9.5 9.5h-14a9.5 9.5 0 1 1 0-19h4.5v-7.8c0-4.6-3.3-8.4-7.3-8.4H59.8c-4 0-7.3 3.8-7.3 8.4v129a9.5 9.5 0 0 1-9.5 9.5z"/><path d="M174.3 241.9H41.9c-14.5 0-26.3-12.3-26.3-27.4v-17.3a9.5 9.5 0 0 1 9.5-9.5h129.5a9.5 9.5 0 0 1 0 19h-120v7.8c0 4.6 3.2 8.4 7.3 8.4h132.4c4 0 7.3-3.8 7.3-8.4V22.7a9.5 9.5 0 1 1 19 0v191.8c0 15.1-11.8 27.4-26.3 27.4z"/><path d="M171.4 241.9c-14.5 0-26.3-12.3-26.3-27.4v-17.3a9.5 9.5 0 0 1 19 0v17.3c0 4.6 3.3 8.4 7.3 8.4a9.5 9.5 0 0 1 0 19zM154.6 97H78.3a9.5 9.5 0 0 1 0-19h76.3a9.5 9.5 0 0 1 0 19zm0 32.3H78.3a9.5 9.5 0 1 1 0-19h76.3a9.5 9.5 0 0 1 0 19z"/></symbol><symbol id="sandb-icon" viewBox="0 0 256 256"><path d="M232.9 165.3H23.1a9.5 9.5 0 0 1-9.5-9.5v-30.5a9.4 9.4 0 0 1 9.5-9.5h209.8a9.4 9.4 0 0 1 9.5 9.5v30.5a9.5 9.5 0 0 1-9.5 9.5zm-200.3-19h190.8v-11.5H32.6z"/><path d="M218.5 215.3h-181a9.5 9.5 0 0 1-9.5-9.5v-50a9.5 9.5 0 0 1 9.5-9.5h181a9.5 9.5 0 0 1 9.5 9.5v50a9.5 9.5 0 0 1-9.5 9.5zM47 196.3h162v-31H47zm172.2-94.5a9.2 9.2 0 0 1-3.6-.7l-35.4-14.6a9.6 9.6 0 0 1-5.1-5.2 9.3 9.3 0 0 1 0-7.3l10.7-25.9a9.6 9.6 0 0 1 12.5-5.2l35.3 14.7a9.1 9.1 0 0 1 5.1 5.1 9.3 9.3 0 0 1 0 7.3L228 96a9.6 9.6 0 0 1-8.8 5.8zm-22.9-29.3l17.8 7.4 3.4-8.4-17.7-7.4z"/><path d="M186.1 131.8a11 11 0 0 1-3.6-.7 9.6 9.6 0 0 1-5.2-12.5l15.5-37.2a9.5 9.5 0 1 1 17.5 7.2l-15.4 37.3a9.6 9.6 0 0 1-8.8 5.9z"/><path d="M199.1 134.8c-17.5 0-29.8-8.3-42.8-17s-26.9-18-48.8-20.7c-19.6-2.3-27.7 5.6-38.1 15.7s-22.6 22-46.3 22a9.5 9.5 0 1 1 0-19c16 0 23.5-7.4 33.1-16.6 11.1-10.9 25-24.4 53.6-20.9 26.4 3.2 43.4 14.6 57.1 23.7 11.5 7.7 20.5 13.8 32.2 13.8a9.5 9.5 0 0 1 0 19z"/></symbol><symbol id="sports-icon" viewBox="0 0 256 256"><path d="M128 243.2A115.2 115.2 0 1 1 243.2 128 115.4 115.4 0 0 1 128 243.2zm0-211.4a96.2 96.2 0 1 0 96.2 96.2A96.2 96.2 0 0 0 128 31.8z"/><path d="M118.5 22.3h19v211.47h-19zm77.4 187.3c-1.3-1.3-31.4-32.2-31.4-81.6s30.1-80.3 31.4-81.6l13.5 13.4-6.7-6.7 6.7 6.7c-.2.3-25.9 26.9-25.9 68.2s25.7 67.9 25.9 68.2zm-135.8 0l-13.5-13.4c.2-.3 25.9-26.9 25.9-68.2S46.8 60.1 46.6 59.8l13.5-13.4c1.3 1.3 31.4 32.2 31.4 81.6s-30.1 80.3-31.4 81.6z"/><path d="M132.1 150.7c-16.4 0-31.4-.8-44.1-2-40.2-3.8-67.2-11.2-68.3-11.5l5.1-18.4c1.3.4 106 28.8 206.3.1l5.3 18.2c-36.4 10.4-72.9 13.6-104.3 13.6z"/></symbol><symbol id="strat-icon" viewBox="0 0 256 256"><path d="M128 86.3a42.6 42.6 0 1 1 42.5-42.6A42.5 42.5 0 0 1 128 86.3zm0-66.1a23.6 23.6 0 1 0 23.5 23.5A23.5 23.5 0 0 0 128 20.2z"/><path d="M178.5 86.3h-101a9.5 9.5 0 0 1 0-19h101a9.5 9.5 0 0 1 0 19z"/><path d="M86.3 181.9l-15.1-11.4C94 140.3 89.8 78.1 89.8 77.4l19-1.3c.2 2.8 4.7 69.9-22.5 105.8zm83.4 0C142.5 146 147 78.9 147.2 76.1l19 1.3c0 .7-4.2 62.9 18.6 93.1z"/><path d="M179.9 221.6H76.1a26.2 26.2 0 0 1 0-52.3h103.8a26.2 26.2 0 0 1 0 52.3zM76.1 188.3a7.2 7.2 0 0 0 0 14.3h103.8a7.2 7.2 0 0 0 0-14.3z"/><path d="M201.5 254.8h-147a26.1 26.1 0 0 1 0-52.2h147a26.1 26.1 0 0 1 0 52.2zm-147-33.2a7.1 7.1 0 1 0 0 14.2h147a7.1 7.1 0 0 0 0-14.2z"/></symbol></svg>