<?xml version="1.0" encoding="utf-8"?>
<!-- Generator: Adobe Illustrator 24.0.2, SVG Export Plug-In . SVG Version: 6.00 Build 0)  -->
<svg version="1.1" id="Layer_1" xmlns="http://www.w3.org/2000/svg" xmlns:xlink="http://www.w3.org/1999/xlink" x="0px" y="0px"
	 viewBox="0 0 32 19.01" style="enable-background:new 0 0 32 19.01;" xml:space="preserve">
<style type="text/css">
	.st0{fill:#222638;}
	.st1{fill:#CBDC53;}
</style>
<g>
	<path class="st0" d="M0.2,18.81C0.07,18.68,0,18.52,0,18.35V1.04c0-0.2,0.06-0.36,0.19-0.49c0.12-0.13,0.28-0.2,0.48-0.2h7.55
		c2.31,0,4.12,0.52,5.44,1.57c1.32,1.05,1.97,2.59,1.97,4.61c0,2.03-0.66,3.54-1.97,4.55c-1.32,1-3.13,1.51-5.44,1.51H5.17v5.76
		c0,0.18-0.06,0.33-0.19,0.47c-0.12,0.13-0.28,0.2-0.48,0.2H0.67C0.49,19.01,0.33,18.95,0.2,18.81z M8.08,8.77
		c0.73,0,1.3-0.19,1.72-0.57c0.42-0.38,0.63-0.95,0.63-1.69c0-0.69-0.19-1.25-0.57-1.68C9.47,4.4,8.88,4.19,8.08,4.19H5.09v4.59
		H8.08z"/>
	<path class="st1" d="M16.97,18.81c-0.13-0.13-0.2-0.29-0.2-0.47v-2c0-0.53,0.22-0.98,0.67-1.33l2.48-2.43
		c1.69-1.28,2.96-2.28,3.83-2.99c0.86-0.71,1.52-1.36,1.97-1.93c0.45-0.58,0.68-1.12,0.68-1.64c0-1.32-0.66-1.97-1.97-1.97
		c-0.69,0-1.23,0.21-1.6,0.63c-0.37,0.42-0.62,0.94-0.75,1.56c-0.11,0.41-0.41,0.61-0.91,0.61h-3.52c-0.16,0-0.3-0.06-0.41-0.17
		c-0.12-0.12-0.17-0.24-0.17-0.39c0.04-1.17,0.36-2.24,0.97-3.19c0.61-0.95,1.47-1.71,2.57-2.27C21.72,0.28,22.99,0,24.43,0
		c1.49,0,2.78,0.24,3.87,0.72c1.08,0.48,1.91,1.16,2.47,2.03c0.56,0.87,0.84,1.88,0.84,3.04c0,1.28-0.4,2.44-1.19,3.47
		c-0.79,1.03-2,2.15-3.61,3.36l-2.21,2.21h6.75c0.2,0,0.36,0.06,0.48,0.19C31.94,15.14,32,15.3,32,15.49v2.85
		c0,0.18-0.06,0.33-0.19,0.47c-0.12,0.13-0.28,0.2-0.48,0.2H17.44C17.26,19.01,17.11,18.95,16.97,18.81z"/>
</g>
</svg>
