<svg enable-background="new 0 0 32 19.01" viewBox="0 0 32 19.01" xmlns="http://www.w3.org/2000/svg"><path d="m.2 18.81c-.13-.13-.2-.29-.2-.46v-17.31c0-.2.06-.36.19-.49.12-.13.28-.2.48-.2h7.55c2.31 0 4.12.52 5.44 1.57s1.97 2.59 1.97 4.61c0 2.03-.66 3.54-1.97 4.55-1.32 1-3.13 1.51-5.44 1.51h-3.05v5.76c0 .18-.06.33-.19.47-.12.13-.28.2-.48.2h-3.83c-.18-.01-.34-.07-.47-.21zm7.88-10.04c.73 0 1.3-.19 1.72-.57s.63-.95.63-1.69c0-.69-.19-1.25-.57-1.68-.39-.43-.98-.64-1.78-.64h-2.99v4.59h2.99z" fill="#222638"/><path d="m16.97 18.81c-.13-.13-.2-.29-.2-.47v-2c0-.53.22-.98.67-1.33l2.48-2.43c1.69-1.28 2.96-2.28 3.83-2.99.86-.71 1.52-1.36 1.97-1.93.45-.58.68-1.12.68-1.64 0-1.32-.66-1.97-1.97-1.97-.69 0-1.23.21-1.6.63s-.62.94-.75 1.56c-.11.41-.41.61-.91.61h-3.52c-.16 0-.3-.06-.41-.17-.12-.12-.17-.24-.17-.39.04-1.17.36-2.24.97-3.19s1.47-1.71 2.57-2.27c1.11-.55 2.38-.83 3.82-.83 1.49 0 2.78.24 3.87.72 1.08.48 1.91 1.16 2.47 2.03s.84 1.88.84 3.04c0 1.28-.4 2.44-1.19 3.47s-2 2.15-3.61 3.36l-2.21 2.21h6.75c.2 0 .36.06.48.19.11.12.17.28.17.47v2.85c0 .18-.06.33-.19.47-.12.13-.28.2-.48.2h-13.89c-.18 0-.33-.06-.47-.2z" fill="#cbdc53"/></svg>