<svg enable-background="new 0 0 16 9.51" viewBox="0 0 16 9.51" xmlns="http://www.w3.org/2000/svg"><path d="m.1 9.41c-.07-.07-.1-.15-.1-.24v-8.65c0-.1.03-.18.09-.25s.14-.1.24-.1h3.77c1.16 0 2.06.26 2.72.79.66.52.99 1.29.99 2.31 0 1.01-.33 1.77-.99 2.27s-1.56.75-2.72.75h-1.51v2.88c0 .09-.03.17-.09.23-.06.07-.14.1-.24.1h-1.93c-.09.01-.16-.03-.23-.09zm3.94-5.02c.36 0 .65-.1.86-.29s.31-.47.31-.85c0-.35-.1-.63-.29-.84-.18-.21-.48-.32-.88-.32h-1.49v2.29h1.49z" fill="#222638"/><path d="m8.49 9.41c-.07-.07-.1-.14-.1-.23v-1c0-.27.11-.49.33-.67l1.24-1.21c.84-.64 1.48-1.14 1.91-1.49.43-.36.76-.68.99-.97s.34-.56.34-.82c0-.66-.33-.99-.99-.99-.35 0-.61.1-.8.31s-.31.47-.37.78c-.05.2-.2.31-.45.31h-1.76c-.08 0-.15-.03-.21-.09s-.09-.12-.09-.19c.02-.59.18-1.12.49-1.59.31-.48.74-.85 1.29-1.13.55-.29 1.18-.43 1.9-.43.75 0 1.39.12 1.93.36s.95.58 1.23 1.01c.28.44.42.94.42 1.52 0 .64-.2 1.22-.59 1.73-.4.52-1 1.08-1.81 1.68l-1.11 1.11h3.37c.1 0 .18.03.24.09.08.07.11.15.11.25v1.43c0 .09-.03.17-.09.23-.06.07-.14.1-.24.1h-6.95c-.09 0-.17-.04-.23-.1z" fill="#cbdc53"/></svg>