<svg enable-background="new 0 0 136.23 80.95" viewBox="0 0 136.23 80.95" xmlns="http://www.w3.org/2000/svg"><path d="m.85 80.09c-.57-.56-.85-1.22-.85-1.98v-73.68c0-.83.26-1.53.79-2.1s1.21-.85 2.05-.85h32.13c9.84 0 17.56 2.23 23.16 6.7s8.4 11.01 8.4 19.64-2.8 15.08-8.4 19.36-13.32 6.41-23.16 6.41h-12.95v24.52c0 .76-.27 1.42-.79 1.99-.53.57-1.21.85-2.04.85h-16.35c-.76 0-1.42-.29-1.99-.86zm33.55-42.74c3.1 0 5.54-.81 7.32-2.44s2.67-4.03 2.67-7.21c0-2.95-.81-5.34-2.44-7.15-1.63-1.82-4.14-2.72-7.55-2.72h-12.72v19.53h12.72z" fill="#222638"/><path d="m72.26 80.09c-.57-.57-.85-1.23-.85-1.99v-8.51c0-2.27.95-4.16 2.84-5.68l10.55-10.32c7.19-5.45 12.62-9.69 16.29-12.72s6.47-5.77 8.4-8.23 2.9-4.79 2.9-6.98c0-5.6-2.8-8.4-8.4-8.4-2.95 0-5.22.89-6.81 2.67s-2.65 3.99-3.18 6.64c-.45 1.74-1.74 2.61-3.86 2.61h-14.99c-.68 0-1.27-.24-1.76-.74-.49-.49-.74-1.04-.74-1.65.15-5 1.53-9.52 4.14-13.57s6.26-7.27 10.96-9.65c4.7-2.38 10.11-3.57 16.24-3.57 6.36 0 11.84 1.02 16.46 3.07 4.62 2.04 8.12 4.92 10.5 8.63s3.58 8.02 3.58 12.94c0 5.45-1.69 10.37-5.05 14.76-3.37 4.39-8.5 9.16-15.38 14.3l-9.42 9.42h28.72c.83 0 1.51.27 2.04.79.53.53.79 1.21.79 2.04v12.15c0 .76-.27 1.42-.79 1.99-.53.57-1.21.85-2.04.85h-59.15c-.76.01-1.42-.28-1.99-.85z" fill="#cbdc53"/></svg>