<?xml version="1.0" encoding="utf-8"?>
<!-- Generator: Adobe Illustrator 24.0.2, SVG Export Plug-In . SVG Version: 6.00 Build 0)  -->
<svg version="1.1" id="Layer_1" xmlns="http://www.w3.org/2000/svg" xmlns:xlink="http://www.w3.org/1999/xlink" x="0px" y="0px"
	 viewBox="0 0 16 9.51" style="enable-background:new 0 0 16 9.51;" xml:space="preserve">
<style type="text/css">
	.st0{fill:#222638;}
	.st1{fill:#CBDC53;}
</style>
<g>
	<path class="st0" d="M0.1,9.41C0.03,9.34,0,9.26,0,9.17V0.52c0-0.1,0.03-0.18,0.09-0.25c0.06-0.07,0.14-0.1,0.24-0.1h3.77
		c1.16,0,2.06,0.26,2.72,0.79c0.66,0.52,0.99,1.29,0.99,2.31c0,1.01-0.33,1.77-0.99,2.27c-0.66,0.5-1.56,0.75-2.72,0.75H2.59v2.88
		c0,0.09-0.03,0.17-0.09,0.23c-0.06,0.07-0.14,0.1-0.24,0.1H0.33C0.24,9.51,0.17,9.47,0.1,9.41z M4.04,4.39
		c0.36,0,0.65-0.1,0.86-0.29c0.21-0.19,0.31-0.47,0.31-0.85c0-0.35-0.1-0.63-0.29-0.84C4.74,2.2,4.44,2.09,4.04,2.09H2.55v2.29H4.04
		z"/>
	<path class="st1" d="M8.49,9.41c-0.07-0.07-0.1-0.14-0.1-0.23v-1c0-0.27,0.11-0.49,0.33-0.67l1.24-1.21
		c0.84-0.64,1.48-1.14,1.91-1.49c0.43-0.36,0.76-0.68,0.99-0.97c0.23-0.29,0.34-0.56,0.34-0.82c0-0.66-0.33-0.99-0.99-0.99
		c-0.35,0-0.61,0.1-0.8,0.31c-0.19,0.21-0.31,0.47-0.37,0.78c-0.05,0.2-0.2,0.31-0.45,0.31H8.83c-0.08,0-0.15-0.03-0.21-0.09
		C8.56,3.28,8.53,3.22,8.53,3.15c0.02-0.59,0.18-1.12,0.49-1.59c0.31-0.48,0.74-0.85,1.29-1.13C10.86,0.14,11.49,0,12.21,0
		c0.75,0,1.39,0.12,1.93,0.36c0.54,0.24,0.95,0.58,1.23,1.01c0.28,0.44,0.42,0.94,0.42,1.52c0,0.64-0.2,1.22-0.59,1.73
		c-0.4,0.52-1,1.08-1.81,1.68l-1.11,1.11h3.37c0.1,0,0.18,0.03,0.24,0.09C15.97,7.57,16,7.65,16,7.75v1.43
		c0,0.09-0.03,0.17-0.09,0.23c-0.06,0.07-0.14,0.1-0.24,0.1H8.72C8.63,9.51,8.55,9.47,8.49,9.41z"/>
</g>
</svg>
