<?xml version="1.0" encoding="utf-8"?>
<!-- Generator: Adobe Illustrator 24.0.2, SVG Export Plug-In . SVG Version: 6.00 Build 0)  -->
<svg version="1.1" id="Layer_1" xmlns="http://www.w3.org/2000/svg" xmlns:xlink="http://www.w3.org/1999/xlink" x="0px" y="0px"
	 viewBox="0 0 64 38.03" style="enable-background:new 0 0 64 38.03;" xml:space="preserve">
<style type="text/css">
	.st0{fill:#222638;}
	.st1{fill:#CBDC53;}
</style>
<g>
	<path class="st0" d="M0.4,37.63C0.13,37.36,0,37.05,0,36.69V2.08c0-0.39,0.12-0.72,0.37-0.99c0.25-0.27,0.57-0.4,0.96-0.4h15.09
		c4.62,0,8.25,1.05,10.88,3.15c2.63,2.1,3.95,5.17,3.95,9.23c0,4.05-1.32,7.09-3.95,9.09c-2.63,2.01-6.26,3.01-10.88,3.01h-6.08
		v11.52c0,0.36-0.13,0.67-0.37,0.93c-0.25,0.27-0.57,0.4-0.96,0.4H1.33C0.98,38.03,0.67,37.89,0.4,37.63z M16.16,17.55
		c1.46,0,2.6-0.38,3.44-1.15c0.83-0.76,1.25-1.89,1.25-3.39c0-1.39-0.38-2.51-1.15-3.36c-0.77-0.85-1.95-1.28-3.55-1.28h-5.97v9.17
		H16.16z"/>
	<path class="st1" d="M33.95,37.63c-0.27-0.27-0.4-0.58-0.4-0.93v-4c0-1.07,0.44-1.96,1.33-2.67l4.96-4.85
		c3.38-2.56,5.93-4.55,7.65-5.97c1.72-1.42,3.04-2.71,3.95-3.87c0.91-1.15,1.36-2.25,1.36-3.28c0-2.63-1.32-3.95-3.95-3.95
		c-1.39,0-2.45,0.42-3.2,1.25c-0.75,0.84-1.24,1.88-1.49,3.12c-0.21,0.82-0.82,1.23-1.81,1.23h-7.04c-0.32,0-0.6-0.11-0.83-0.35
		c-0.23-0.23-0.35-0.49-0.35-0.77c0.07-2.35,0.72-4.47,1.95-6.37c1.23-1.9,2.94-3.41,5.15-4.53C43.43,0.56,45.97,0,48.85,0
		c2.99,0,5.56,0.48,7.73,1.44c2.17,0.96,3.81,2.31,4.93,4.05c1.12,1.74,1.68,3.77,1.68,6.08c0,2.56-0.79,4.87-2.37,6.93
		c-1.58,2.06-3.99,4.3-7.23,6.72l-4.43,4.43h13.49c0.39,0,0.71,0.13,0.96,0.37C63.87,30.28,64,30.6,64,30.99v5.71
		c0,0.36-0.13,0.67-0.37,0.93c-0.25,0.27-0.57,0.4-0.96,0.4H34.88C34.52,38.03,34.21,37.89,33.95,37.63z"/>
</g>
</svg>
