<svg enable-background="new 0 0 64 38.03" viewBox="0 0 64 38.03" xmlns="http://www.w3.org/2000/svg"><path d="m.4 37.63c-.27-.27-.4-.58-.4-.94v-34.61c0-.39.12-.72.37-.99s.57-.4.96-.4h15.09c4.62 0 8.25 1.05 10.88 3.15s3.95 5.17 3.95 9.23c0 4.05-1.32 7.09-3.95 9.09-2.63 2.01-6.26 3.01-10.88 3.01h-6.08v11.52c0 .36-.13.67-.37.93-.25.27-.57.4-.96.4h-7.68c-.35.01-.66-.13-.93-.39zm15.76-20.08c1.46 0 2.6-.38 3.44-1.15.83-.76 1.25-1.89 1.25-3.39 0-1.39-.38-2.51-1.15-3.36s-1.95-1.28-3.55-1.28h-5.97v9.17h5.98z" fill="#222638"/><path d="m33.95 37.63c-.27-.27-.4-.58-.4-.93v-4c0-1.07.44-1.96 1.33-2.67l4.96-4.85c3.38-2.56 5.93-4.55 7.65-5.97s3.04-2.71 3.95-3.87c.91-1.15 1.36-2.25 1.36-3.28 0-2.63-1.32-3.95-3.95-3.95-1.39 0-2.45.42-3.2 1.25-.75.84-1.24 1.88-1.49 3.12-.21.82-.82 1.23-1.81 1.23h-7.04c-.32 0-.6-.11-.83-.35-.23-.23-.35-.49-.35-.77.07-2.35.72-4.47 1.95-6.37s2.94-3.41 5.15-4.53c2.2-1.13 4.74-1.69 7.62-1.69 2.99 0 5.56.48 7.73 1.44s3.81 2.31 4.93 4.05 1.68 3.77 1.68 6.08c0 2.56-.79 4.87-2.37 6.93s-3.99 4.3-7.23 6.72l-4.43 4.43h13.49c.39 0 .71.13.96.37.26.26.39.58.39.97v5.71c0 .36-.13.67-.37.93-.25.27-.57.4-.96.4h-27.79c-.36 0-.67-.14-.93-.4z" fill="#cbdc53"/></svg>