<svg xmlns="http://www.w3.org/2000/svg" width="256" height="256" viewBox="0 0 256 256"><g fill="#231f20"><path d="M128 85.1A42.9 42.9 0 1 1 85.1 128 42.9 42.9 0 0 1 128 85.1m0-12.9a55.8 55.8 0 1 0 55.8 55.8A55.8 55.8 0 0 0 128 72.2z"/><path d="M181.8 22.6a51.6 51.6 0 0 1 51.6 51.6v107.6a51.6 51.6 0 0 1-51.6 51.6H74.2a51.6 51.6 0 0 1-51.6-51.6V74.2a51.6 51.6 0 0 1 51.6-51.6h107.6m0-13H74.2A64.7 64.7 0 0 0 9.6 74.2v107.6a64.7 64.7 0 0 0 64.6 64.6h107.6a64.7 64.7 0 0 0 64.6-64.6V74.2a64.7 64.7 0 0 0-64.6-64.6z"/><circle cx="196.9" cy="59.4" r="15.4"/></g></svg>