<svg xmlns="http://www.w3.org/2000/svg" width="256" height="256" viewBox="0 0 256 256"><g fill="#231f20"><path d="M198.9 68.5c1.9 0-2.1 12.5-7.8 16.8-1 .8-1.1 1.2-.6 1.2s5.5-2 9.5-4.8a2.2 2.2 0 0 1 1.2-.6c2.6 0-3.6 13.9-12.6 18.1-2.3 1.1-.5 2.5-.7 5.9-2.9 49.4-46.8 82.4-91.5 82.4a85.8 85.8 0 0 1-42.2-10.8H59c9.4 0 30.4-1.4 40.6-12.8 5.6-6.5-15.4 2.2-28.8-19.1-.9-1.4-.8-1.9 0-1.9s3.6.8 6.7.8a15.3 15.3 0 0 0 7.1-1.7S55.8 127.8 60 112c0 0 8.7 6.6 15.4 6.6a6.6 6.6 0 0 0 6.6-4.5c-26.2-6.4-24.6-36.3-18.5-36.3l1.2.3c9.3 5.7 32.4 28.3 60 28.3l4.5-.2s-4.3-12 1.4-21.3c4.5-7.4 14.2-16.3 26.7-16.3 6.9 0 14.6 2.7 22.7 9.8 0 0 8.3-4.1 18.6-9.8h.3m0-12a12.6 12.6 0 0 0-6.2 1.7l-11.4 6.1c-7.7-5.1-15.7-7.7-24-7.7-17.3 0-30.8 11.9-37 22a33.4 33.4 0 0 0-4.6 14.8c-14.6-3.2-28-13.3-36.6-19.7-3.1-2.3-5.7-4.4-8.1-5.8a14.4 14.4 0 0 0-7.5-2.1c-6.2 0-14 4.4-15.5 16.8a40.5 40.5 0 0 0 3.5 20.9 11.3 11.3 0 0 0-3.1 5.4c-1.9 7.2-1.3 17.9 10.7 29.7-1.1 2.7-1.9 7.3 1.6 12.7A43.5 43.5 0 0 0 72 163.8a76.2 76.2 0 0 1-13 1h-4.8a11.9 11.9 0 0 0-11.5 8.6 12.1 12.1 0 0 0 5.6 13.9 99.7 99.7 0 0 0 48.1 12.3 108.6 108.6 0 0 0 69.2-25.6 96.8 96.8 0 0 0 34.3-67.8 45.1 45.1 0 0 0 8.5-9.6c4.5-6.8 6.2-12.7 5.1-17.6a13.8 13.8 0 0 0-2.6-5.3c1.1-4.9.2-7.6-.2-8.7a12.5 12.5 0 0 0-11.8-8.5z"/><path d="M128 15A113 113 0 1 1 15 128 113 113 0 0 1 128 15m0-12a125 125 0 0 0-88.4 213.4A125 125 0 0 0 216.4 39.6 124.2 124.2 0 0 0 128 3z"/></g></svg>